<?xml version="1.0" encoding="iso-8859-1"?>
<svg version="1.1" id="Layer_1"
	xmlns="http://www.w3.org/2000/svg"
	xmlns:xlink="http://www.w3.org/1999/xlink" x="0px" y="0px" viewBox="0 0 512 512" style="enable-background:new 0 0 512 512;" xml:space="preserve">
	<g>
		<polygon fill="#1B2C4F" points="220.201,259.605 220.201,294.802 235.573,294.802 235.573,323.208 276.428,323.208 
		276.428,294.802 291.8,294.802 291.8,259.605 	"/>
		<circle fill="#1B2C4F" cx="256.006" cy="457.747" r="40.059"/>
		<rect x="389.578" y="420.98" fill="#1B2C4F" width="87.028" height="73.549"/>
		<rect x="35.397" y="420.98" fill="#1B2C4F" width="87.028" height="73.549"/>
	</g>
	<g>
		<path fill="#1B2C4F" d="M270.19,405.401v-25.9h162.898c7.836,0,14.19-6.353,14.19-14.19s-6.354-14.19-14.19-14.19H270.19
		v-13.722h6.238c7.836,0,14.19-6.353,14.19-14.19v-14.217h1.182c7.836,0,14.19-6.353,14.19-14.19v-35.196v-23.218
		c0-7.837-6.354-14.19-14.19-14.19s-14.19,6.353-14.19,14.19v9.028h-43.22v-9.028c0-6.12-3.925-11.552-9.736-13.474
		c-40.933-13.533-68.435-51.611-68.435-94.753C156.22,73.142,200.982,28.38,256,28.38s99.78,44.761,99.78,99.78
		c0,23.822-8.531,46.883-24.023,64.933c-5.104,5.947-4.42,14.905,1.527,20.01c5.947,5.104,14.907,4.419,20.011-1.527
		c19.903-23.192,30.865-52.817,30.865-83.416C384.161,57.493,326.669,0,256,0S127.84,57.493,127.84,128.16
		c0,51.915,31.011,98.122,78.169,118.041v13.404v35.196c0,7.837,6.353,14.19,14.19,14.19h1.183v14.216
		c0,7.837,6.353,14.19,14.19,14.19h6.237v13.722H78.914c-7.837,0-14.19,6.353-14.19,14.19v41.476H35.397
		c-7.837,0-14.19,6.353-14.19,14.19v73.552c0,7.837,6.353,14.19,14.19,14.19h87.033c7.837,0,14.19-6.353,14.19-14.19v-73.551
		c0-7.837-6.353-14.19-14.19-14.19H93.104v-27.286H241.81v25.9c-23.051,6.255-40.057,27.35-40.057,52.352
		C201.752,487.664,226.087,512,256,512c29.911,0,54.248-24.335,54.248-54.248C310.248,432.749,293.241,411.656,270.19,405.401z
		 M234.39,280.611v-6.816h43.22v6.816h-1.182c-7.836,0-14.19,6.353-14.19,14.19v14.216h-12.475v-14.216
		c0-7.837-6.353-14.19-14.19-14.19H234.39z M108.241,480.337H49.587v-45.17h58.652v45.17H108.241z M256,483.62
		c-14.263,0-25.867-11.603-25.867-25.867s11.605-25.867,25.867-25.867c14.263,0,25.867,11.605,25.867,25.867
		S270.263,483.62,256,483.62z"/>
		<path fill="#1B2C4F" d="M476.603,406.787h-87.033c-7.836,0-14.19,6.353-14.19,14.19v73.551c0,7.837,6.354,14.19,14.19,14.19
		h87.033c7.836,0,14.19-6.353,14.19-14.19v-73.551C490.794,413.14,484.441,406.787,476.603,406.787z M462.413,480.337h-58.652
		v-45.17h58.652V480.337z"/>
	</g>
</svg>
