<?xml version="1.0" encoding="UTF-8" standalone="no"?>
<!-- Created with Inkscape (http://www.inkscape.org/) -->

<svg
   width="76mm"
   height="76mm"
   viewBox="0 0 76 76"
   version="1.1"
   id="svg5"
   sodipodi:docname="board.svg"
   inkscape:version="1.1.2 (b8e25be833, 2022-02-05)"
   xmlns:inkscape="http://www.inkscape.org/namespaces/inkscape"
   xmlns:sodipodi="http://sodipodi.sourceforge.net/DTD/sodipodi-0.dtd"
   xmlns="http://www.w3.org/2000/svg"
   xmlns:svg="http://www.w3.org/2000/svg">
  <sodipodi:namedview
     id="namedview7"
     pagecolor="#ffffff"
     bordercolor="#111111"
     borderopacity="1"
     showgrid="false"
 />
  <defs
     id="defs2" />
  <g
     inkscape:label="Layer 1"
     inkscape:groupmode="layer"
     id="layer1">
    <g
       id="g165"
       transform="translate(-13.57445,-15.917338)">
      <path
         style="fill:#d0d0d0;fill-opacity:1;stroke-width:0.0846667"
         d="m 57.150004,92.170036 c 0,-0.01758 0.06667,-0.08425 0.148166,-0.148167 0.134287,-0.105308 0.137281,-0.10232 0.03197,0.03197 -0.110606,0.141029 -0.180133,0.185886 -0.180133,0.116197 z m -2.936235,-2.00003 c 0,-0.302684 0.01537,-0.426509 0.03415,-0.275167 0.01878,0.151342 0.01878,0.398992 0,0.550333 -0.01878,0.151342 -0.03415,0.02752 -0.03415,-0.275166 z m -8.38604,0.08467 c 0,-0.20955 0.01651,-0.295275 0.03669,-0.1905 0.02018,0.104775 0.02018,0.276225 0,0.381 -0.02018,0.104775 -0.03669,0.01905 -0.03669,-0.1905 z m -13.048359,0 c 0,-0.116416 0.01922,-0.164041 0.0427,-0.105833 0.02349,0.05821 0.02349,0.153458 0,0.211667 -0.02349,0.05821 -0.0427,0.01058 -0.0427,-0.105834 z m 4.649983,0.03528 c 0.0041,-0.09864 0.02412,-0.118694 0.05115,-0.05116 0.02446,0.06112 0.02145,0.134146 -0.0067,0.162281 -0.02813,0.02814 -0.04814,-0.02188 -0.04447,-0.111125 z M 62.59173,89.746672 c 0,-0.20955 0.01651,-0.295275 0.03669,-0.1905 0.02018,0.104775 0.02018,0.276225 0,0.381 -0.02018,0.104775 -0.03669,0.01905 -0.03669,-0.1905 z m 8.385177,-0.550333 c 5.08e-4,-0.2794 0.01628,-0.383489 0.03513,-0.231318 0.01884,0.15218 0.01845,0.38078 -8.64e-4,0.508 -0.01932,0.127229 -0.03474,0.0027 -0.03426,-0.276682 z m 3.646102,-0.592667 c 1.7e-4,-0.512233 0.01414,-0.71087 0.03099,-0.441409 0.01685,0.26946 0.0167,0.68856 -3.39e-4,0.931333 -0.01704,0.242773 -0.03083,0.02231 -0.03064,-0.489924 z m -8.377834,-1.27 c 7e-5,-0.9779 0.01239,-1.366351 0.02739,-0.863227 0.015,0.503114 0.01494,1.303214 -8.4e-5,1.778 -0.01506,0.474777 -0.02733,0.06313 -0.02726,-0.914773 z m -8.386915,0.254 c 2.54e-4,-0.465667 0.01444,-0.645363 0.03159,-0.39933 0.01716,0.246041 0.01698,0.627041 -4.23e-4,0.846667 -0.01738,0.219633 -0.03142,0.01833 -0.03119,-0.447337 z m 16.768916,-1.693333 c 6.9e-5,-0.9779 0.01239,-1.366354 0.02739,-0.863228 0.015,0.503115 0.01494,1.303215 -8.5e-5,1.778 -0.01506,0.474777 -0.02733,0.06313 -0.02726,-0.914772 z m -3.641861,-0.338667 c -8.5e-5,-0.791633 0.01263,-1.126879 0.02828,-0.74499 0.01565,0.381889 0.01573,1.029589 1.69e-4,1.439333 -0.01555,0.409744 -0.02836,0.09729 -0.02846,-0.694343 z m -8.386122,-0.635 c 0,-0.442383 0.01427,-0.623358 0.03171,-0.402167 0.01744,0.221192 0.01744,0.583142 0,0.804334 -0.01744,0.221191 -0.03171,0.04022 -0.03171,-0.402167 z M 45.811354,84.363283 c 0.0041,-0.09863 0.02412,-0.118694 0.05115,-0.05115 0.02446,0.06112 0.02145,0.134144 -0.0067,0.162278 -0.02813,0.02813 -0.04814,-0.02187 -0.04447,-0.111125 z m 34.494984,-1.643944 c 0.08429,-0.09313 0.172295,-0.169334 0.195579,-0.169334 0.02328,0 -0.02663,0.0762 -0.110912,0.169334 -0.08429,0.09313 -0.172295,0.169333 -0.195578,0.169333 -0.02328,0 0.02663,-0.0762 0.110911,-0.169333 z m 1.511251,-4.318001 c 0,-0.395816 0.01458,-0.557741 0.03241,-0.359833 0.01783,0.197908 0.01783,0.521758 0,0.719667 -0.01783,0.197908 -0.03241,0.03598 -0.03241,-0.359834 z m 6.04525,-1.41074 c 0.05821,-0.02349 0.153458,-0.02349 0.211667,0 0.05821,0.02349 0.01058,0.0427 -0.105834,0.0427 -0.116416,0 -0.164041,-0.01922 -0.105833,-0.0427 z M 29.247713,74.252671 c 0,-1.46685 0.01153,-2.066925 0.02563,-1.3335 0.0141,0.733425 0.0141,1.933575 0,2.667 -0.01409,0.733425 -0.02563,0.13335 -0.02563,-1.3335 z m 2.698707,-2.688114 c 1.202347,-0.01326 3.145447,-0.01324 4.318,2.6e-5 1.172553,0.01327 0.188816,0.02412 -2.186085,0.0241 -2.3749,-1.4e-5 -3.334262,-0.01087 -2.131915,-0.02413 z m 6.809749,0.0074 c 0.05821,-0.02349 0.153458,-0.02349 0.211667,0 0.05821,0.02349 0.01058,0.0427 -0.105834,0.0427 -0.116416,0 -0.164041,-0.01922 -0.105833,-0.0427 z M 54.715837,69.707 c 0.08149,-0.0213 0.214841,-0.0213 0.296333,0 0.08149,0.0213 0.01482,0.03872 -0.148167,0.03872 -0.162983,0 -0.229658,-0.01742 -0.148166,-0.03872 z m 12.014869,-0.534303 c 0,-0.116417 0.01922,-0.164042 0.0427,-0.105833 0.02349,0.05821 0.02349,0.153458 0,0.211666 -0.02349,0.05821 -0.0427,0.01058 -0.0427,-0.105833 z m -35.509871,-0.06343 c 1.129242,-0.01334 2.977092,-0.01334 4.106334,0 1.129242,0.01334 0.205317,0.02425 -2.053167,0.02425 -2.258483,0 -3.182408,-0.01091 -2.053167,-0.02425 z M 15.685665,68.60394 c 0.128699,-0.01946 0.319199,-0.01894 0.423334,0.0012 0.104134,0.0201 -0.0012,0.03602 -0.233998,0.03538 -0.232833,-6.77e-4 -0.318034,-0.01708 -0.189336,-0.03654 z m 72.007841,9.99e-4 c 0.104775,-0.02018 0.276225,-0.02018 0.381,0 0.104775,0.02018 0.01905,0.03669 -0.1905,0.03669 -0.20955,0 -0.295275,-0.01651 -0.1905,-0.03669 z M 40.386003,68.114338 c 0.157969,-0.162984 0.306267,-0.296334 0.32955,-0.296334 0.02328,0 -0.08691,0.13335 -0.244884,0.296334 -0.157969,0.162983 -0.306267,0.296333 -0.32955,0.296333 -0.02328,0 0.08691,-0.13335 0.244884,-0.296333 z m 24.889555,-1.121834 c -0.547887,-0.5715 -0.547887,-0.5715 0.02361,-0.02361 0.314325,0.301338 0.5715,0.558513 0.5715,0.5715 0,0.06232 -0.08621,-0.01705 -0.595113,-0.547888 z m -0.894598,-0.889 c -0.161289,-0.1905 -0.161289,-0.1905 0.02921,-0.02921 0.179022,0.151572 0.229043,0.219711 0.161289,0.219711 -0.01607,0 -0.101791,-0.08572 -0.1905,-0.1905 z m -11.294957,-0.2648 c 0,-0.01758 0.06668,-0.08426 0.148167,-0.148167 0.134286,-0.105314 0.137281,-0.102319 0.03197,0.03197 -0.110606,0.141034 -0.180134,0.185884 -0.180134,0.1162 z M 13.885334,65.669371 c 0,-0.01758 0.06668,-0.08426 0.148167,-0.148167 0.134286,-0.105314 0.137281,-0.10232 0.03197,0.03197 -0.110606,0.141033 -0.180134,0.185884 -0.180134,0.1162 z m 49.282688,-2.557422 c 0.0041,-0.09863 0.02412,-0.118695 0.05115,-0.05115 0.02446,0.06112 0.02145,0.134144 -0.0067,0.162278 -0.02813,0.02813 -0.04814,-0.02187 -0.04447,-0.111125 z m 2.465155,-0.670278 c 0.0017,-0.1397 0.0207,-0.186601 0.04217,-0.104223 0.02147,0.08238 0.02005,0.196679 -0.0031,0.254 -0.02319,0.05732 -0.04076,-0.01008 -0.03903,-0.149777 z M 30.252098,60.812037 c 0.596435,-0.01457 1.548935,-0.01453 2.116667,8.5e-5 0.56773,0.01463 0.07974,0.02655 -1.08443,0.0265 -1.164166,-5.2e-5 -1.628673,-0.01202 -1.032237,-0.02659 z m 14.642405,6e-6 c 0.640292,-0.01438 1.688042,-0.01438 2.328333,0 0.640292,0.01438 0.116417,0.02615 -1.164166,0.02615 -1.280584,0 -1.804459,-0.01177 -1.164167,-0.02615 z M 15.64028,60.221564 c 0.150302,-0.0187 0.417002,-0.01901 0.592666,-6.77e-4 0.175663,0.01833 0.05269,0.03363 -0.273278,0.03401 -0.325967,3.39e-4 -0.469692,-0.01462 -0.319388,-0.03332 z m 50.001762,-0.362227 c 0,-0.256117 0.01587,-0.360892 0.03527,-0.232833 0.0194,0.128058 0.0194,0.337608 0,0.465666 -0.0194,0.128059 -0.03527,0.02328 -0.03527,-0.232833 z m 16.463463,0.36726 c 0.05821,-0.02349 0.153459,-0.02349 0.211667,0 0.05821,0.02349 0.01058,0.04271 -0.105833,0.04271 -0.116417,0 -0.164042,-0.01922 -0.105834,-0.04271 z m 5.416779,-0.005 c 0.1503,-0.0187 0.417,-0.01901 0.592667,-6.77e-4 0.175666,0.01833 0.05269,0.03363 -0.273279,0.03401 -0.325966,3.39e-4 -0.469688,-0.01462 -0.319388,-0.03332 z m 2.182055,-0.616231 c 0.08429,-0.09313 0.172297,-0.169333 0.19558,-0.169333 0.02328,0 -0.02663,0.0762 -0.110913,0.169333 -0.08429,0.09313 -0.172297,0.169333 -0.19558,0.169333 -0.02328,0 0.02663,-0.0762 0.110913,-0.169333 z m -58.737504,-1.24877 c 0.989542,-0.01355 2.608792,-0.01355 3.598334,0 0.989542,0.01354 0.179917,0.02463 -1.799167,0.02463 -1.979083,0 -2.788708,-0.01108 -1.799167,-0.02463 z m 15.962222,0.0011 c 0.222597,-0.0175 0.565498,-0.01729 0.762,5.08e-4 0.196504,0.01776 0.01438,0.03207 -0.404721,0.03182 -0.4191,-2.54e-4 -0.579875,-0.01479 -0.357279,-0.03228 z M 13.885334,57.28737 c 0,-0.01758 0.06668,-0.08426 0.148167,-0.148166 0.134286,-0.105315 0.137281,-0.10232 0.03197,0.03197 -0.110606,0.141034 -0.180134,0.185884 -0.180134,0.1162 z m 3.791672,-0.707884 c 0.246036,-0.01716 0.627036,-0.01698 0.846667,4.23e-4 0.21963,0.01738 0.01833,0.03142 -0.447339,0.03119 -0.465666,-2.54e-4 -0.645364,-0.01444 -0.399328,-0.03159 z m 67.056485,-2.54e-4 c 0.292862,-0.01658 0.750062,-0.01644 1.016,3.38e-4 0.26593,0.01675 0.02631,0.03031 -0.532486,0.03015 -0.5588,-1.7e-4 -0.776382,-0.01387 -0.483514,-0.03045 z M 62.727204,55.816504 c -0.105314,-0.134287 -0.10232,-0.137282 0.03197,-0.03197 0.08149,0.06391 0.148166,0.130585 0.148166,0.148166 0,0.06969 -0.06953,0.02483 -0.180133,-0.116199 z m -7.254028,-2.095501 c 0.0017,-0.1397 0.0207,-0.1866 0.04217,-0.104222 0.02147,0.08238 0.02005,0.196678 -0.0031,0.254 -0.02319,0.05732 -0.04076,-0.01008 -0.03903,-0.149778 z m -2.455334,-0.338666 c 0.0017,-0.1397 0.0207,-0.186601 0.04217,-0.104222 0.02147,0.08238 0.02005,0.196678 -0.0031,0.254 -0.02319,0.05732 -0.04076,-0.01008 -0.03903,-0.149778 z m 2.470151,-1.058334 c 0,-0.48895 0.01399,-0.688975 0.0311,-0.4445 0.0171,0.244475 0.0171,0.644525 0,0.889 -0.0171,0.244475 -0.0311,0.04445 -0.0311,-0.4445 z m -2.455734,-0.465666 c 2.54e-4,-0.465667 0.01444,-0.645365 0.0316,-0.399329 0.01716,0.246036 0.01698,0.627036 -4.24e-4,0.846667 -0.01738,0.21963 -0.03142,0.01833 -0.03119,-0.447338 z m -36.753927,-0.01842 c 0.128698,-0.01946 0.319198,-0.01894 0.423333,0.0012 0.104135,0.0201 -0.0012,0.03602 -0.233997,0.03538 -0.232834,-6.77e-4 -0.318035,-0.01708 -0.189336,-0.03654 z m 4.740169,-9.23e-4 c 0.174625,-0.01827 0.460375,-0.01827 0.635,0 0.174625,0.01827 0.03175,0.03321 -0.3175,0.03321 -0.34925,0 -0.492125,-0.01494 -0.3175,-0.03321 z m 43.307003,0.0056 c 0.05821,-0.02349 0.153458,-0.02349 0.211667,0 0.05821,0.02349 0.01058,0.0427 -0.105834,0.0427 -0.116416,0 -0.164041,-0.01922 -0.105833,-0.0427 z m 18.290839,-0.0064 c 0.246036,-0.01716 0.627037,-0.01698 0.846667,4.23e-4 0.21963,0.01738 0.01833,0.03142 -0.447338,0.03119 -0.465667,-2.54e-4 -0.645365,-0.01444 -0.399329,-0.03159 z m 4.484496,0.0028 c 0.104775,-0.02018 0.276225,-0.02018 0.381,0 0.104775,0.02018 0.01905,0.03669 -0.1905,0.03669 -0.20955,0 -0.295275,-0.01651 -0.1905,-0.03669 z M 63.946115,49.386663 c 0.08238,-0.02147 0.196678,-0.02005 0.254,0.0031 0.05732,0.02319 -0.01008,0.04076 -0.149778,0.03903 -0.1397,-0.0017 -0.1866,-0.0207 -0.104222,-0.04217 z m 0.508,0 c 0.08238,-0.02147 0.196678,-0.02005 0.254,0.0031 0.05732,0.02319 -0.01008,0.04076 -0.149778,0.03903 -0.1397,-0.0017 -0.1866,-0.0207 -0.104222,-0.04217 z M 42.926003,48.482036 c 0,-0.01758 0.06667,-0.08426 0.148166,-0.148166 0.134287,-0.105315 0.137281,-0.10232 0.03197,0.03197 -0.110606,0.141034 -0.180133,0.185884 -0.180133,0.1162 z m 3.375867,-0.1162 c -0.105315,-0.134286 -0.10232,-0.137281 0.03197,-0.03197 0.141034,0.110606 0.185884,0.180133 0.1162,0.180133 -0.01758,0 -0.08426,-0.06668 -0.148166,-0.148167 z M 17.594005,48.196802 c 0.479785,-0.01512 1.241785,-0.01506 1.693333,1.69e-4 0.451548,0.01519 0.059,0.02756 -0.872337,0.02749 -0.931333,-7.5e-5 -1.300781,-0.01251 -0.820996,-0.02763 z m 66.374167,-3e-6 c 0.523875,-0.01485 1.381125,-0.01485 1.905,0 0.523875,0.01485 0.09525,0.02701 -0.9525,0.02701 -1.04775,0 -1.476375,-0.01215 -0.9525,-0.02701 z M 36.361027,43.815003 c 1.8e-5,-2.142067 0.011,-3.006229 0.02441,-1.920361 0.01341,1.085868 0.01339,2.838468 -3.2e-5,3.894667 -0.01343,1.056198 -0.0244,0.167761 -0.02438,-1.974306 z m -7.110382,-4.233334 c -4e-6,-4.423833 0.01027,-6.245997 0.02283,-4.049253 0.01256,2.196745 0.01257,5.816245 8e-6,8.043334 -0.01256,2.227089 -0.02284,0.429753 -0.02284,-3.994081 z m 4.655048,4.148667 c 1.8e-5,-2.142067 0.011,-3.006229 0.02441,-1.92036 0.01341,1.085868 0.0134,2.838468 -3.2e-5,3.894667 -0.01343,1.056198 -0.0244,0.16776 -0.02438,-1.974307 z m 22.270644,2.582334 c 0.417158,-0.4191 0.777519,-0.762 0.800803,-0.762 0.02328,0 -0.298978,0.3429 -0.716136,0.762 -0.417159,0.4191 -0.77752,0.762 -0.800803,0.762 -0.02328,0 0.298977,-0.3429 0.716136,-0.762 z m 5.273818,-0.40144 c 0.292867,-0.01658 0.750067,-0.01644 1.016,3.39e-4 0.265933,0.01675 0.02632,0.03031 -0.532484,0.03015 -0.5588,-1.69e-4 -0.776383,-0.01387 -0.483516,-0.03045 z m 4.399349,0.003 c 0.104775,-0.02018 0.276225,-0.02018 0.381,0 0.104775,0.02018 0.01905,0.03669 -0.1905,0.03669 -0.20955,0 -0.295275,-0.01651 -0.1905,-0.03669 z M 50.63067,42.291003 c 1.932096,-1.932517 3.531951,-3.513667 3.555235,-3.513667 0.02328,0 -1.538472,1.58115 -3.470568,3.513667 -1.932096,1.932516 -3.531952,3.513667 -3.555235,3.513667 -0.02328,0 1.538472,-1.581151 3.470568,-3.513667 z m 17.822334,2.921 c 0.08428,-0.09313 0.172295,-0.169333 0.195579,-0.169333 0.02328,0 -0.02663,0.0762 -0.110912,0.169333 -0.08429,0.09313 -0.172295,0.169333 -0.195578,0.169333 -0.02328,0 0.02663,-0.0762 0.110911,-0.169333 z M 17.042259,43.456009 c 0.269458,-0.01685 0.688558,-0.0167 0.931333,3.39e-4 0.242775,0.01704 0.02231,0.03083 -0.489924,0.03064 -0.512234,-1.7e-4 -0.710868,-0.01414 -0.441409,-0.03099 z m 2.287511,-5.92e-4 c 0.503122,-0.015 1.303222,-0.01494 1.778,8.4e-5 0.474777,0.01506 0.06313,0.02733 -0.914769,0.02726 -0.9779,-6.9e-5 -1.366354,-0.01239 -0.863231,-0.02739 z m 63.237119,2.54e-4 c 0.405103,-0.01549 1.090903,-0.01556 1.524001,-1.7e-4 0.433097,0.0154 0.101649,0.02807 -0.736551,0.02816 -0.8382,8.5e-5 -1.192553,-0.01251 -0.78745,-0.02799 z m 3.941283,0.0017 c 0.151342,-0.01878 0.398992,-0.01878 0.550333,0 0.151342,0.01878 0.02752,0.03415 -0.275166,0.03415 -0.302684,0 -0.426509,-0.01537 -0.275167,-0.03415 z M 16.700501,39.816302 c 0.174625,-0.01827 0.460375,-0.01827 0.635,0 0.174625,0.01827 0.03175,0.03321 -0.3175,0.03321 -0.34925,0 -0.492125,-0.01494 -0.3175,-0.03321 z m 2.75617,-0.0015 c 0.479786,-0.01512 1.241786,-0.01506 1.693334,1.69e-4 0.451548,0.01519 0.059,0.02756 -0.872337,0.02749 -0.931333,-7.5e-5 -1.300782,-0.01251 -0.820997,-0.02763 z m 63.114501,1.69e-4 c 0.407458,-0.01552 1.074208,-0.01552 1.481667,0 0.407458,0.01552 0.07408,0.02822 -0.740834,0.02822 -0.814916,0 -1.148291,-0.0127 -0.740833,-0.02822 z m 3.598333,0.0011 c 0.197909,-0.01783 0.521759,-0.01783 0.719667,0 0.197908,0.01783 0.03598,0.03241 -0.359833,0.03241 -0.395817,0 -0.557742,-0.01458 -0.359834,-0.03241 z M 47.674021,37.62728 c 0.0041,-0.09863 0.02412,-0.118694 0.05115,-0.05115 0.02446,0.06112 0.02145,0.134145 -0.0067,0.162278 -0.02813,0.02813 -0.04815,-0.02187 -0.04447,-0.111125 z m -11.45256,-0.177781 c 0.06112,-0.02446 0.134144,-0.02145 0.162278,0.0067 0.02813,0.02813 -0.02187,0.04814 -0.111125,0.04447 -0.09863,-0.0041 -0.118695,-0.02412 -0.05115,-0.05115 z m 19.76456,-1.339163 c 9.4e-4,-0.186267 0.01828,-0.252498 0.03853,-0.14718 0.02025,0.105318 0.01948,0.257718 -0.0017,0.338667 -0.02119,0.08095 -0.03776,-0.0052 -0.03682,-0.191487 z M 17.93329,35.073331 c 0.666393,-0.01432 1.733193,-0.01429 2.370667,7.7e-5 0.637475,0.01436 0.09224,0.02608 -1.211622,0.02604 -1.303867,-4.3e-5 -1.825437,-0.0118 -1.159045,-0.02612 z m 66.077215,7.4e-5 c 0.593725,-0.01455 1.565275,-0.01455 2.159,0 0.593725,0.01455 0.10795,0.02646 -1.0795,0.02646 -1.18745,0 -1.673225,-0.01191 -1.0795,-0.02646 z M 16.532332,31.435247 c 0.128698,-0.01946 0.319198,-0.01894 0.423333,0.0012 0.104135,0.0201 -0.0012,0.03602 -0.233997,0.03538 -0.232834,-6.77e-4 -0.318035,-0.01708 -0.189336,-0.03654 z m 3.597169,-0.0021 c 0.337609,-0.01607 0.890059,-0.01607 1.227667,0 0.337608,0.01607 0.06138,0.02922 -0.613833,0.02922 -0.675217,0 -0.951442,-0.01315 -0.613834,-0.02922 z m 62.183967,1.69e-4 c 0.312288,-0.01624 0.845688,-0.01635 1.185333,-2.54e-4 0.339646,0.01611 0.08414,0.0294 -0.567796,0.02953 -0.651933,1.7e-4 -0.929825,-0.01305 -0.617537,-0.02929 z m 4.192816,0.0016 c 0.1503,-0.0187 0.417,-0.01901 0.592667,-6.78e-4 0.175666,0.01833 0.05269,0.03363 -0.273279,0.03401 -0.325967,3.38e-4 -0.469688,-0.01462 -0.319388,-0.03332 z M 21.935352,28.821951 c 0.0041,-0.09863 0.02412,-0.118694 0.05115,-0.05115 0.02446,0.06112 0.02145,0.134144 -0.0067,0.162278 -0.02813,0.02813 -0.04814,-0.02187 -0.04447,-0.111125 z M 62.59577,23.706668 c 0,-0.302683 0.01537,-0.426508 0.03415,-0.275167 0.01878,0.151342 0.01878,0.398992 0,0.550334 -0.01878,0.151342 -0.03415,0.02752 -0.03415,-0.275167 z m 8.392736,-2.201333 c 0,-1.513417 0.01148,-2.132542 0.02551,-1.375834 0.01403,0.756709 0.01403,1.994959 0,2.751667 -0.01403,0.756708 -0.02551,0.137583 -0.02551,-1.375833 z m 3.639445,-0.592667 c 0,-1.140883 0.01199,-1.607608 0.02663,-1.037167 0.01465,0.570442 0.01465,1.503892 0,2.074334 -0.01465,0.570441 -0.02663,0.103716 -0.02663,-1.037167 z m -8.38397,-0.381 c -8.4e-5,-0.791633 0.01263,-1.12688 0.02828,-0.744991 0.01565,0.381889 0.01573,1.029589 1.69e-4,1.439334 -0.01555,0.409744 -0.02836,0.09729 -0.02846,-0.694343 z m -8.385721,-0.08467 c 2.54e-4,-0.465666 0.01444,-0.645365 0.03159,-0.399328 0.01716,0.246036 0.01698,0.627036 -4.23e-4,0.846666 -0.01738,0.219631 -0.03142,0.01833 -0.03119,-0.447338 z m 4.734626,-1.608666 c 6.77e-4,-0.232834 0.01708,-0.318035 0.03654,-0.189336 0.01946,0.128698 0.01894,0.319198 -0.0012,0.423333 -0.0201,0.104135 -0.03602,-0.0012 -0.03538,-0.233997 z m -8.378433,-0.592667 c 3.38e-4,-0.325967 0.01568,-0.448942 0.03401,-0.273279 0.01833,0.175664 0.01802,0.442364 -6.78e-4,0.592667 -0.0187,0.150304 -0.0337,0.0066 -0.03332,-0.319388 z m -8.386724,-0.04233 c 0,-0.20955 0.01651,-0.295275 0.03669,-0.1905 0.02018,0.104775 0.02018,0.276225 0,0.381 -0.02018,0.104775 -0.03669,0.01905 -0.03669,-0.1905 z M 32.77937,18.118668 c 0,-0.116417 0.01922,-0.164042 0.0427,-0.105834 0.02349,0.05821 0.02349,0.153459 0,0.211667 -0.02349,0.05821 -0.0427,0.01058 -0.0427,-0.105833 z m 30.424301,-1.778 c 0.08428,-0.09313 0.172295,-0.169334 0.195578,-0.169334 0.02328,0 -0.02663,0.0762 -0.110912,0.169334 -0.08429,0.09313 -0.172295,0.169333 -0.195578,0.169333 -0.02328,0 0.02663,-0.0762 0.110912,-0.169333 z"
         id="path179" />
      <path
         style="fill:#a3a3a3;fill-opacity:1;stroke-width:0.0846667"
         d="m 29.707202,92.053839 c -0.105315,-0.13429 -0.10232,-0.137278 0.03197,-0.03197 0.08149,0.06392 0.148166,0.13059 0.148166,0.148167 0,0.06969 -0.06953,0.02483 -0.180133,-0.116197 z m 2.2968,0.116197 c 0,-0.01758 0.06668,-0.08425 0.148167,-0.148167 0.134286,-0.105308 0.137281,-0.10232 0.03197,0.03197 -0.110606,0.141029 -0.180133,0.185886 -0.180133,0.116197 z m 8.382001,0 c 0,-0.01758 0.06667,-0.08425 0.148166,-0.148167 0.134287,-0.105308 0.137281,-0.10232 0.03197,0.03197 -0.110606,0.141029 -0.180133,0.185886 -0.180133,0.116197 z m -17.02441,-9.514197 c -0.205258,-0.232834 -0.205258,-0.232834 0.02758,-0.02758 0.217618,0.191846 0.271661,0.260409 0.205258,0.260409 -0.01516,0 -0.11994,-0.104775 -0.232833,-0.232833 z m -9.402392,-6.350001 c -0.105315,-0.134286 -0.10232,-0.137281 0.03197,-0.03197 0.08149,0.06391 0.148166,0.130586 0.148166,0.148167 0,0.06968 -0.06953,0.02483 -0.180133,-0.1162 z m 37.511727,-5.503334 c -0.205258,-0.232833 -0.205258,-0.232833 0.02757,-0.02757 0.128059,0.112893 0.232834,0.217668 0.232834,0.232834 0,0.0664 -0.06856,0.01236 -0.260409,-0.205259 z m -8.883592,-1.4078 c 0,-0.01758 0.06667,-0.08426 0.148167,-0.148166 0.134286,-0.105315 0.137281,-0.10232 0.03197,0.03197 -0.110606,0.141034 -0.180133,0.185884 -0.180133,0.1162 z m -1.608667,-1.873033 c 0.15797,-0.162983 0.306268,-0.296333 0.329551,-0.296333 0.02328,0 -0.08691,0.13335 -0.244884,0.296333 -0.157969,0.162983 -0.306267,0.296333 -0.329551,0.296333 -0.02328,0 0.08692,-0.13335 0.244884,-0.296333 z m 11.726334,-9.440334 c 0.883848,-0.884767 1.626046,-1.608667 1.649329,-1.608667 0.02328,0 -0.680815,0.7239 -1.564662,1.608667 -0.883847,0.884767 -1.626045,1.608667 -1.649329,1.608667 -0.02328,0 0.680815,-0.7239 1.564662,-1.608667 z M 67.818004,57.61567 c 0.109368,-0.116416 0.217901,-0.211666 0.241184,-0.211666 0.02328,0 -0.04715,0.09525 -0.156517,0.211666 -0.109368,0.116417 -0.217901,0.211667 -0.241184,0.211667 -0.02328,0 0.04715,-0.09525 0.156517,-0.211667 z m -9.990667,-9.398 c 1.000371,-1.001184 1.837907,-1.820334 1.86119,-1.820334 0.02328,0 -0.776152,0.81915 -1.776523,1.820334 -1.000372,1.001183 -1.837907,1.820333 -1.861191,1.820333 -0.02328,0 0.776153,-0.81915 1.776524,-1.820333 z m 31.868959,-7.768167 c -0.16129,-0.1905 -0.16129,-0.1905 0.02921,-0.02921 0.179019,0.151572 0.22904,0.219711 0.16129,0.219711 -0.01607,0 -0.101795,-0.08573 -0.1905,-0.190501 z m -42.79096,-1.111467 c 0,-0.01758 0.06668,-0.08426 0.148167,-0.148167 0.134286,-0.105314 0.137281,-0.10232 0.03197,0.03197 -0.110606,0.141033 -0.180134,0.185884 -0.180134,0.1162 z m 7.916334,-1.238034 c 0.370348,-0.372533 0.692411,-0.677333 0.715694,-0.677333 0.02328,0 -0.260679,0.3048 -0.631027,0.677333 -0.370348,0.372534 -0.692411,0.677334 -0.715694,0.677334 -0.02328,0 0.260679,-0.3048 0.631027,-0.677334 z m 34.882669,-3.640666 c 0.08429,-0.09313 0.172297,-0.169334 0.19558,-0.169334 0.02328,0 -0.02663,0.0762 -0.110913,0.169334 -0.08429,0.09313 -0.172297,0.169333 -0.19558,0.169333 -0.02328,0 0.02663,-0.0762 0.110913,-0.169333 z M 65.566293,16.319501 c -0.161289,-0.1905 -0.161289,-0.1905 0.02921,-0.02921 0.104775,0.08871 0.1905,0.174434 0.1905,0.1905 0,0.06776 -0.06814,0.01773 -0.219711,-0.161289 z"
         id="path177" />
      <path
         style="fill:#8c8c8c;fill-opacity:1;stroke-width:0.0846667"
         d="m 30.630406,92.478569 c 0.19914,-0.01788 0.50394,-0.01764 0.677334,8.47e-4 0.173394,0.0182 0.01046,0.03283 -0.362071,0.03252 -0.372534,0 -0.514402,-0.0152 -0.315263,-0.03308 z m 8.382001,0 c 0.199139,-0.01788 0.503939,-0.01764 0.677333,8.47e-4 0.173394,0.0182 0.01046,0.03283 -0.362071,0.03252 -0.372533,0 -0.514402,-0.0152 -0.315262,-0.03308 z m 8.337429,8.47e-4 c 0.174625,-0.01826 0.460375,-0.01826 0.635,0 0.174625,0.01827 0.03175,0.03321 -0.3175,0.03321 -0.34925,0 -0.492125,-0.01494 -0.3175,-0.03321 z m 8.382001,0 c 0.174625,-0.01826 0.460375,-0.01826 0.635,0 0.174625,0.01827 0.03175,0.03321 -0.3175,0.03321 -0.34925,0 -0.492125,-0.01494 -0.3175,-0.03321 z m 8.382,0 c 0.174625,-0.01826 0.460375,-0.01826 0.635,0 0.174625,0.01827 0.03175,0.03321 -0.3175,0.03321 -0.34925,0 -0.492125,-0.01494 -0.3175,-0.03321 z m 8.382001,0 c 0.174625,-0.01826 0.460375,-0.01826 0.635,0 0.174625,0.01827 0.03175,0.03321 -0.3175,0.03321 -0.34925,0 -0.492125,-0.01494 -0.3175,-0.03321 z m -1.518931,-2.267077 c 5.08e-4,-0.2794 0.01628,-0.383489 0.03513,-0.231318 0.01884,0.15218 0.01845,0.38078 -8.64e-4,0.508 -0.01932,0.127229 -0.03474,0.0027 -0.03426,-0.276682 z m 3.627799,0.296333 c 0,-0.116416 0.01922,-0.164041 0.04271,-0.105833 0.02349,0.05821 0.02349,0.153458 0,0.211667 -0.02349,0.05821 -0.04271,0.01058 -0.04271,-0.105834 z m -12.01953,-0.211666 c 0.0017,-0.1397 0.0207,-0.186597 0.04217,-0.104225 0.02147,0.08238 0.02005,0.196681 -0.0031,0.254 -0.02319,0.05733 -0.04076,-0.01008 -0.03903,-0.149775 z m 12.029222,-0.465667 c 0,-0.20955 0.01651,-0.295275 0.03669,-0.1905 0.02018,0.104775 0.02018,0.276225 0,0.381 -0.02018,0.104775 -0.03669,0.01905 -0.03669,-0.1905 z m -8.382001,-0.338667 c 0,-0.20955 0.01651,-0.295275 0.03669,-0.1905 0.02018,0.104775 0.02018,0.276225 0,0.381 -0.02018,0.104775 -0.03669,0.01905 -0.03669,-0.1905 z m -8.377278,-0.465666 c 3.39e-4,-0.325967 0.01568,-0.448945 0.03401,-0.273279 0.01833,0.175666 0.01802,0.442366 -6.78e-4,0.592667 -0.0187,0.1503 -0.0337,0.0066 -0.03332,-0.319388 z m -8.37327,-1.862667 c 5.6e-5,-1.1176 0.0121,-1.563091 0.02677,-0.989982 0.01467,0.573117 0.01463,1.487517 -8.4e-5,2.032 -0.01472,0.544491 -0.02673,0.07558 -0.02667,-1.042018 z m -20.323348,0.635 c 0,-0.62865 0.01333,-0.885825 0.02962,-0.5715 0.01629,0.314325 0.01629,0.828675 0,1.143 -0.01629,0.314325 -0.02962,0.05715 -0.02962,-0.5715 z m 11.92905,-0.127 c 6.78e-4,-0.232833 0.01708,-0.318034 0.03654,-0.18934 0.01946,0.128702 0.01894,0.319202 -0.0012,0.423333 -0.0201,0.10414 -0.03602,-0.0012 -0.03538,-0.233993 z m 16.773863,-2.243667 c 0,-0.721783 0.01299,-1.017058 0.02886,-0.656167 0.01587,0.360892 0.01587,0.951442 0,1.312334 -0.01587,0.360891 -0.02886,0.06562 -0.02886,-0.656167 z m 8.377507,-0.592667 c 0,-0.395816 0.01458,-0.557741 0.03241,-0.359833 0.01783,0.197908 0.01783,0.521758 0,0.719667 -0.01783,0.197908 -0.03241,0.03598 -0.03241,-0.359834 z M 26.649822,84.098791 c 0.105318,-0.02025 0.257718,-0.01948 0.338667,0.0017 0.08095,0.02119 -0.0052,0.03776 -0.191487,0.03682 -0.186267,-9.39e-4 -0.252497,-0.01828 -0.14718,-0.03853 z m 2.073346,0.0015 c 0.08149,-0.0213 0.214842,-0.0213 0.296334,0 0.08149,0.0213 0.01482,0.03872 -0.148167,0.03872 -0.162983,0 -0.229658,-0.01743 -0.148167,-0.03872 z m 48.138295,5.08e-4 c 0.06112,-0.02446 0.134144,-0.02145 0.162278,0.0067 0.02813,0.02813 -0.02187,0.04814 -0.111125,0.04447 -0.09863,-0.0041 -0.118694,-0.02412 -0.05115,-0.05115 z M 21.962746,78.232005 c 0,-0.721783 0.01299,-1.017058 0.02886,-0.656167 0.01587,0.360892 0.01587,0.951442 0,1.312334 -0.01587,0.360891 -0.02886,0.06562 -0.02886,-0.656167 z m 63.658035,-1.328673 c 0.08238,-0.02147 0.19668,-0.02005 0.254,0.0031 0.05733,0.02319 -0.01008,0.04076 -0.149776,0.03903 -0.1397,-0.0017 -0.186596,-0.0207 -0.104224,-0.04217 z M 74.548385,54.229003 c -10e-7,-12.479867 0.0098,-17.597862 0.02178,-11.373323 0.01198,6.224539 0.01198,16.43534 2e-6,22.690668 -0.01198,6.255328 -0.02178,1.162523 -0.02179,-11.317345 z M 13.57445,75.141671 c 3.39e-4,-0.325966 0.01568,-0.448941 0.03401,-0.273278 0.01833,0.175664 0.01802,0.442364 -6.77e-4,0.592666 -0.0187,0.150304 -0.0337,0.0066 -0.03332,-0.319388 z m 4.229809,-1.798326 c 0.269458,-0.01685 0.688558,-0.0167 0.931333,3.38e-4 0.242775,0.01704 0.02231,0.03083 -0.489924,0.03064 -0.512234,-1.69e-4 -0.710867,-0.01414 -0.441409,-0.03099 z m 67.140137,3.38e-4 c 0.222597,-0.0175 0.565497,-0.01729 0.762,5.08e-4 0.196503,0.01776 0.01438,0.03207 -0.404724,0.03182 -0.4191,-2.54e-4 -0.579874,-0.01479 -0.357276,-0.03228 z m -3.119093,-2.393012 c 0,-1.32715 0.0117,-1.870075 0.02601,-1.2065 0.01431,0.663575 0.01431,1.749425 0,2.413 -0.0143,0.663575 -0.02601,0.12065 -0.02601,-1.2065 z m -27.192969,1.209245 c 0.128699,-0.01946 0.319199,-0.01894 0.423334,0.0012 0.104135,0.0201 -0.0012,0.03602 -0.233998,0.03538 -0.232833,-6.77e-4 -0.318034,-0.01708 -0.189336,-0.03654 z m -25.09954,-0.589748 c 0.06112,-0.02446 0.134144,-0.02145 0.162278,0.0067 0.02813,0.02813 -0.02187,0.04815 -0.111125,0.04447 -0.09863,-0.0041 -0.118695,-0.02412 -0.05115,-0.05115 z m 8.89,0 c 0.06112,-0.02446 0.134144,-0.02145 0.162278,0.0067 0.02813,0.02813 -0.02187,0.04815 -0.111125,0.04447 -0.09863,-0.0041 -0.118694,-0.02412 -0.05115,-0.05115 z m -0.680387,-2.4596 c 0.199139,-0.01789 0.503939,-0.01763 0.677333,5.93e-4 0.173394,0.01819 0.01046,0.03283 -0.362071,0.03252 -0.372533,-3.38e-4 -0.514402,-0.01519 -0.315262,-0.03308 z M 13.575133,66.802004 c 0,-0.34925 0.01495,-0.492125 0.03321,-0.3175 0.01827,0.174625 0.01827,0.460375 0,0.635 -0.01827,0.174625 -0.03321,0.03175 -0.03321,-0.3175 z m 46.036889,0.119945 c 0.0041,-0.09863 0.02412,-0.118694 0.05115,-0.05115 0.02446,0.06112 0.02145,0.134144 -0.0067,0.162278 -0.02813,0.02813 -0.04815,-0.02187 -0.04447,-0.111125 z M 43.926128,66.151501 c 0.06112,-0.02446 0.134144,-0.02145 0.162278,0.0067 0.02813,0.02813 -0.02187,0.04815 -0.111125,0.04447 -0.09863,-0.0041 -0.118694,-0.02413 -0.05115,-0.05115 z m 2.111375,-0.0055 c 0.756708,-0.01403 1.994958,-0.01403 2.751667,0 0.756708,0.01403 0.137583,0.02551 -1.375834,0.02551 -1.513416,0 -2.132541,-0.01148 -1.375833,-0.02551 z M 17.589501,64.960853 c 0.477308,-0.01509 1.258359,-0.01509 1.735667,0 0.477308,0.01509 0.08678,0.02744 -0.867834,0.02744 -0.954616,0 -1.345141,-0.01235 -0.867833,-0.02744 z m 66.167004,-8.5e-5 c 0.593725,-0.01455 1.565275,-0.01455 2.159,0 0.593725,0.01455 0.10795,0.02646 -1.0795,0.02646 -1.18745,0 -1.673225,-0.01191 -1.0795,-0.02646 z m -1.928273,-2.342716 c 0.0018,-2.027975 0.02014,-2.368566 0.129106,-2.39828 0.09258,-0.02525 0.0987,-0.01456 0.02256,0.03945 -0.07741,0.05491 -0.110825,0.675611 -0.129106,2.398279 -0.02467,2.324169 -0.02467,2.324169 -0.02256,-0.03948 z m -16.191919,0.289285 c 0,-0.162983 0.01743,-0.229658 0.03872,-0.148166 0.0213,0.08149 0.0213,0.214841 0,0.296333 -0.0213,0.08149 -0.03872,0.01482 -0.03872,-0.148167 z m 0.01203,-1.651 c 1.69e-4,-0.512233 0.01414,-0.710867 0.03099,-0.441409 0.01685,0.269459 0.0167,0.688559 -3.39e-4,0.931334 -0.01704,0.242775 -0.03083,0.02231 -0.03064,-0.489925 z m -0.01516,-2.116667 c 0.0017,-0.1397 0.0207,-0.1866 0.04217,-0.104222 0.02147,0.08238 0.02005,0.196678 -0.0031,0.254 -0.02319,0.05732 -0.04076,-0.01008 -0.03903,-0.149778 z m -52.05805,-0.719666 c 0,-0.34925 0.01495,-0.492125 0.03321,-0.3175 0.01827,0.174625 0.01827,0.460375 0,0.635 -0.01827,0.174625 -0.03321,0.03175 -0.03321,-0.3175 z m 25.350369,-0.06345 c 1.408642,-0.01303 3.713692,-0.01303 5.122334,0 1.408642,0.01303 0.256117,0.0237 -2.561167,0.0237 -2.817283,0 -3.969808,-0.01066 -2.561167,-0.0237 z m 9.149293,0.0056 c 0.06112,-0.02446 0.134144,-0.02145 0.162278,0.0067 0.02813,0.02813 -0.02187,0.04814 -0.111125,0.04447 -0.09863,-0.0041 -0.118694,-0.02413 -0.05115,-0.05115 z M 16.531168,56.581361 c 0.128058,-0.0194 0.337608,-0.0194 0.465666,0 0.128059,0.0194 0.02328,0.03527 -0.232833,0.03527 -0.256117,0 -0.360892,-0.01587 -0.232833,-0.03527 z m 3.090333,-0.0024 c 0.430742,-0.01537 1.135592,-0.01537 1.566334,0 0.430741,0.01537 0.07832,0.02794 -0.783167,0.02794 -0.861483,0 -1.213908,-0.01257 -0.783167,-0.02794 z m 62.20476,-0.04401 c -0.0226,-0.0589 -0.03028,-1.135228 -0.01707,-2.391834 0.02403,-2.284739 0.02403,-2.284739 0.04375,0.06237 0.01972,2.347111 0.01972,2.347111 1.183891,2.373262 1.164166,0.02615 1.164166,0.02615 -0.0027,0.04472 -0.876627,0.01395 -1.177045,-0.0081 -1.207921,-0.08852 z m 4.681911,0.04585 c 0.151342,-0.01878 0.398992,-0.01878 0.550333,0 0.151342,0.01878 0.02752,0.03415 -0.275166,0.03415 -0.302684,0 -0.426509,-0.01537 -0.275167,-0.03415 z m -42.243378,-1.77459 c 0.06112,-0.02446 0.134145,-0.02145 0.162279,0.0067 0.02813,0.02813 -0.02187,0.04815 -0.111125,0.04447 -0.09863,-0.0041 -0.118695,-0.02412 -0.05115,-0.05115 z m 11.205244,-1.466164 c 0,-0.116416 0.01922,-0.164041 0.0427,-0.105833 0.02349,0.05821 0.02349,0.153458 0,0.211667 -0.02349,0.05821 -0.0427,0.01058 -0.0427,-0.105834 z m -39.783926,-1.49805 c 0.08238,-0.02147 0.196678,-0.02005 0.254,0.0031 0.05732,0.02319 -0.01008,0.04076 -0.149778,0.03903 -0.1397,-0.0017 -0.1866,-0.0207 -0.104222,-0.04217 z m 66.340018,8.46e-4 c 0.06112,-0.02446 0.134144,-0.02145 0.162278,0.0067 0.02813,0.02813 -0.02187,0.04814 -0.111125,0.04447 -0.09863,-0.0041 -0.118694,-0.02412 -0.05115,-0.05115 z m 5.753033,-0.002 c 0.105317,-0.02025 0.257717,-0.01948 0.338666,0.0017 0.08094,0.02119 -0.0052,0.03776 -0.19149,0.03682 -0.186267,-9.4e-4 -0.252502,-0.01828 -0.147176,-0.03853 z m -74.20403,-1.8028 c 0,-0.34925 0.01495,-0.492125 0.03321,-0.3175 0.01827,0.174625 0.01827,0.460375 0,0.635 -0.01827,0.174625 -0.03321,0.03175 -0.03321,-0.3175 z m 2.660689,-1.837881 c 0.105317,-0.02025 0.257717,-0.01948 0.338666,0.0017 0.08095,0.02119 -0.0052,0.03776 -0.191487,0.03682 -0.186267,-9.39e-4 -0.252497,-0.01828 -0.147179,-0.03853 z m 4.274679,-0.0027 c 0.267759,-0.0168 0.705909,-0.0168 0.973667,0 0.267758,0.0168 0.04868,0.03055 -0.486833,0.03055 -0.535517,0 -0.754592,-0.01375 -0.486834,-0.03055 z m 61.31576,-0.04453 c -0.0226,-0.0589 -0.03028,-1.135228 -0.01707,-2.391834 0.02403,-2.28474 0.02403,-2.28474 0.04375,0.06089 0.01972,2.345632 0.01972,2.345632 0.591224,2.37525 0.5715,0.02962 0.5715,0.02962 -0.0027,0.0462 -0.397649,0.01149 -0.586791,-0.01634 -0.615254,-0.09051 z m 5.189911,0.04734 c 0.104775,-0.02018 0.276225,-0.02018 0.381,0 0.104775,0.02018 0.01905,0.03669 -0.1905,0.03669 -0.20955,0 -0.295275,-0.01651 -0.1905,-0.03669 z M 66.486115,45.91533 c 0.08238,-0.02147 0.196679,-0.02005 0.254,0.0031 0.05732,0.02319 -0.01008,0.04076 -0.149777,0.03903 -0.1397,-0.0017 -0.186601,-0.0207 -0.104223,-0.04217 z M 15.726834,43.457422 c 0.151342,-0.01878 0.398992,-0.01878 0.550334,0 0.151341,0.01878 0.02752,0.03415 -0.275167,0.03415 -0.302683,0 -0.426508,-0.01537 -0.275167,-0.03415 z m 71.88352,-8.5e-5 c 0.15218,-0.01884 0.38078,-0.01846 0.508,8.63e-4 0.127229,0.01932 0.0027,0.03474 -0.276682,0.03426 -0.2794,-5.08e-4 -0.383489,-0.01628 -0.231318,-0.03513 z M 66.737915,37.528502 c -0.02058,-5.947833 -0.02058,-5.947833 -4.125379,-5.947833 -4.104801,0 -4.104801,0 -4.129799,1.9685 -0.025,1.9685 -0.025,1.9685 -0.0227,-0.02117 0.0023,-1.989667 0.0023,-1.989667 4.132147,-2.01164 3.258736,-0.01734 4.13844,5.08e-4 4.170582,0.08467 0.02241,0.05865 0.03061,2.754591 0.01823,5.990974 -0.02251,5.884334 -0.02251,5.884334 -0.04308,-0.0635 z m -53.162782,4.127501 c 0,-0.34925 0.01495,-0.492125 0.03321,-0.3175 0.01827,0.174625 0.01827,0.460375 0,0.635 -0.01827,0.174625 -0.03321,0.03175 -0.03321,-0.3175 z m 55.634835,-3.810001 c 0,-1.32715 0.0117,-1.870075 0.02601,-1.2065 0.0143,0.663575 0.0143,1.749425 0,2.413 -0.01431,0.663576 -0.02601,0.12065 -0.02601,-1.2065 z m -31.179104,2.053292 c 0.91659,-0.01366 2.44059,-0.01368 3.386666,-4.2e-5 0.946077,0.01364 0.196139,0.02481 -1.666527,0.02483 -1.862667,2.3e-5 -2.63673,-0.01113 -1.720139,-0.02479 z m 6.315543,0.0013 c 0.19914,-0.01788 0.50394,-0.01763 0.677334,5.92e-4 0.173394,0.01819 0.01046,0.03283 -0.362072,0.03252 -0.372533,-3.39e-4 -0.514401,-0.01519 -0.315262,-0.03308 z m -28.702723,-0.08393 c 0.152176,-0.01884 0.380776,-0.01845 0.508,8.64e-4 0.127224,0.01932 0.0027,0.03474 -0.276683,0.03426 -0.2794,-5.08e-4 -0.383493,-0.01628 -0.231317,-0.03513 z m 71.793933,2.54e-4 c 0.150301,-0.0187 0.417001,-0.01901 0.592667,-6.77e-4 0.175667,0.01833 0.05269,0.03363 -0.273278,0.03401 -0.325967,3.39e-4 -0.469689,-0.01462 -0.319389,-0.03332 z M 81.828292,37.44387 c 0.002,-2.349534 0.002,-2.349534 0.573886,-2.355815 0.57184,-0.0063 0.57184,-0.0063 0.0225,0.02501 -0.54934,0.03129 -0.54934,0.03129 -0.573886,2.355814 -0.02454,2.324529 -0.02454,2.324529 -0.0225,-0.025 z m -40.997789,3.69e-4 c 4.3815,-0.02309 4.3815,-0.02309 4.3815,-2.9429 0,-2.919807 0,-2.919807 -7.958671,-2.942056 -7.95867,-0.02225 -7.95867,-0.02225 0.02117,-0.0216 7.979837,6.51e-4 7.979837,6.51e-4 7.979837,2.963985 0,2.963333 0,2.963333 -4.402667,2.964498 -4.402667,0.0012 -4.402667,0.0012 -0.02117,-0.02193 z m 6.877495,-2.900237 c 0.0017,-3.005667 0.0017,-3.005667 4.150339,-3.006863 4.148667,-0.0012 4.148667,-0.0012 0.02225,0.02196 -4.126418,0.02316 -4.126418,0.02316 -4.150338,3.006864 -0.02392,2.983703 -0.02392,2.983703 -0.02225,-0.02196 z m -31.473164,0.532915 c 0.104775,-0.02018 0.276225,-0.02018 0.381,0 0.104775,0.02018 0.01905,0.03669 -0.1905,0.03669 -0.20955,0 -0.295275,-0.01651 -0.1905,-0.03669 z m 5.291667,0.0014 c 0.08149,-0.0213 0.214842,-0.0213 0.296334,0 0.08149,0.0213 0.01482,0.03872 -0.148167,0.03872 -0.162983,0 -0.229658,-0.01742 -0.148167,-0.03872 z m 65.829328,-0.0015 c 0.105317,-0.02025 0.257717,-0.01948 0.338667,0.0017 0.08094,0.02119 -0.0052,0.03776 -0.19149,0.03682 -0.186267,-9.4e-4 -0.252502,-0.01828 -0.147177,-0.03853 z M 13.575133,33.274002 c 0,-0.34925 0.01495,-0.492125 0.03321,-0.3175 0.01827,0.174625 0.01827,0.460375 0,0.635 -0.01827,0.174625 -0.03321,0.03175 -0.03321,-0.3175 z m 2.110532,-1.838755 c 0.128699,-0.01946 0.319199,-0.01894 0.423334,0.0012 0.104134,0.0201 -0.0012,0.03602 -0.233998,0.03538 -0.232833,-6.77e-4 -0.318034,-0.01708 -0.189336,-0.03654 z m 71.924689,-5.93e-4 c 0.15218,-0.01884 0.38078,-0.01845 0.508,8.64e-4 0.127229,0.01932 0.0027,0.03474 -0.276682,0.03426 -0.2794,-5.08e-4 -0.383489,-0.01628 -0.231318,-0.03513 z M 21.96253,30.183669 c 8.4e-5,-0.6985 0.01323,-0.972984 0.02914,-0.609964 0.01591,0.36302 0.01581,0.93452 -2.54e-4,1.27 -0.01603,0.33548 -0.02904,0.03846 -0.02892,-0.660036 z m 10.858752,-5.947834 c -0.02166,-0.03493 0.671417,-0.05376 1.54017,-0.04185 2.917522,0.03998 3.204529,0.06979 0.843714,0.08763 -1.289477,0.0097 -2.362225,-0.01085 -2.383884,-0.04578 z m 9.490887,1.69e-4 c 0.663575,-0.01431 1.749425,-0.01431 2.413,0 0.663576,0.01431 0.12065,0.02601 -1.2065,0.02601 -1.32715,0 -1.870075,-0.0117 -1.2065,-0.02601 z m 8.382001,0 c 0.663575,-0.01431 1.749425,-0.01431 2.413,0 0.663575,0.01431 0.12065,0.02601 -1.2065,0.02601 -1.32715,0 -1.870075,-0.0117 -1.2065,-0.02601 z m 7.170714,-0.04564 c -0.02299,-0.05992 -0.03034,-0.755244 -0.01632,-1.545167 0.02549,-1.436224 0.02549,-1.436224 0.04446,0.06527 0.01898,1.501517 0.01898,1.501517 2.368476,1.525419 2.3495,0.0239 2.3495,0.0239 -0.0027,0.04367 -1.853803,0.01558 -2.361015,-0.0033 -2.393963,-0.08917 z m 8.381391,-0.0016 c -0.02333,-0.06079 -0.03037,-0.584666 -0.01565,-1.164167 0.02676,-1.053609 0.02676,-1.053609 0.04507,0.06688 0.01831,1.120494 0.01831,1.120494 2.367806,1.144396 2.3495,0.0239 2.3495,0.0239 -0.0027,0.04367 -1.871102,0.01573 -2.360832,-0.0028 -2.394573,-0.09076 z m 8.371299,-0.693776 c 5.08e-4,-0.2794 0.01628,-0.383492 0.03512,-0.231316 0.01884,0.152175 0.01845,0.380775 -8.64e-4,0.508 -0.01932,0.127224 -0.03474,0.0027 -0.03426,-0.276684 z M 49.481416,20.870335 c 6.4e-5,-1.024467 0.01229,-1.431931 0.02717,-0.905475 0.01488,0.526457 0.01483,1.364657 -8.5e-5,1.862667 -0.01494,0.498011 -0.02712,0.06727 -0.02705,-0.957192 z m -20.324758,-0.04233 c 0,-0.48895 0.01399,-0.688975 0.0311,-0.4445 0.0171,0.244475 0.0171,0.644525 0,0.889 -0.0171,0.244475 -0.0311,0.04445 -0.0311,-0.4445 z m 11.938001,-0.254 c 0,-0.48895 0.01399,-0.688975 0.0311,-0.4445 0.0171,0.244475 0.0171,0.644525 0,0.889 -0.0171,0.244475 -0.0311,0.04445 -0.0311,-0.4445 z m 16.758914,-1.397 c 5.08e-4,-0.2794 0.01628,-0.383492 0.03512,-0.231317 0.01884,0.152176 0.01846,0.380776 -8.63e-4,0.508 -0.01932,0.127225 -0.03474,0.0027 -0.03426,-0.276683 z m 8.377116,-0.423333 c 9.4e-4,-0.186267 0.01828,-0.252497 0.03853,-0.14718 0.02025,0.105318 0.01948,0.257718 -0.0017,0.338667 -0.02119,0.08095 -0.03776,-0.0052 -0.03682,-0.191487 z m 4.747081,-0.465667 c 0,-0.302683 0.01537,-0.426508 0.03415,-0.275167 0.01878,0.151342 0.01878,0.398992 0,0.550334 -0.01878,0.151342 -0.03415,0.02752 -0.03415,-0.275167 z m 3.633211,0.254 c 0,-0.162983 0.01742,-0.229658 0.03872,-0.148167 0.0213,0.08149 0.0213,0.214842 0,0.296334 -0.0213,0.08149 -0.03872,0.01482 -0.03872,-0.148167 z M 62.588313,18.203334 c 0,-0.162983 0.01743,-0.229658 0.03872,-0.148166 0.02129,0.08149 0.02129,0.214841 0,0.296333 -0.0213,0.08149 -0.03872,0.01482 -0.03872,-0.148167 z m 12.009709,-0.303388 c 0.0041,-0.09863 0.02412,-0.118694 0.05115,-0.05115 0.02446,0.06112 0.02145,0.134143 -0.0067,0.162278 -0.02813,0.02813 -0.04814,-0.02187 -0.04447,-0.111125 z"
         id="path175" />
      <path
         style="fill:#767676;fill-opacity:1;stroke-width:0.0846667"
         d="m 45.905842,86.233005 c 0.0017,-0.1397 0.0207,-0.186596 0.04217,-0.104224 0.02147,0.08238 0.02005,0.19668 -0.0031,0.254 -0.02319,0.05733 -0.04076,-0.01008 -0.03903,-0.149776 z m 3.56573,-1.608666 c 5.08e-4,-0.2794 0.01628,-0.383493 0.03513,-0.231317 0.01884,0.152175 0.01845,0.380779 -8.64e-4,0.507999 -0.01932,0.127228 -0.03474,0.0027 -0.03426,-0.276682 z m -8.386885,-0.169334 c 9.4e-4,-0.186266 0.01828,-0.252497 0.03853,-0.147179 0.02025,0.105318 0.01948,0.257718 -0.0017,0.338667 -0.02119,0.08094 -0.03776,-0.0052 -0.03682,-0.191488 z m 1.656974,-7.556468 c 1.55173,-0.01292 4.06633,-0.01292 5.588001,1.6e-5 1.521671,0.01293 0.252074,0.02351 -2.821326,0.0235 -3.0734,-1e-5 -4.318404,-0.01059 -2.766675,-0.02351 z"
         id="path173" />
      <path
         style="fill:#606060;fill-opacity:1;stroke-width:0.0846667"
         d="m 54.853203,92.053839 c -0.105314,-0.13429 -0.102319,-0.137278 0.03197,-0.03197 0.08149,0.06392 0.148167,0.13059 0.148167,0.148167 0,0.06969 -0.06953,0.02483 -0.180134,-0.116197 z M 42.079336,69.892338 c 0.252935,-0.256117 0.478932,-0.465667 0.502216,-0.465667 0.02328,0 -0.164614,0.20955 -0.417549,0.465667 -0.252935,0.256116 -0.478933,0.465666 -0.502216,0.465666 -0.02328,0 0.164614,-0.20955 0.417549,-0.465666 z M 53.15987,69.024504 c -0.105314,-0.134286 -0.10232,-0.137281 0.03197,-0.03197 0.08149,0.06391 0.148166,0.130585 0.148166,0.148166 0,0.06968 -0.06953,0.02483 -0.180133,-0.1162 z m 3.355134,-0.02117 c 0.08428,-0.09313 0.172295,-0.169334 0.195578,-0.169334 0.02328,0 -0.02663,0.0762 -0.110912,0.169334 -0.08429,0.09313 -0.172295,0.169333 -0.195578,0.169333 -0.02328,0 0.02663,-0.0762 0.110912,-0.169333 z m 10.202334,-4.021667 c -0.205658,-0.20955 -0.354874,-0.381 -0.331591,-0.381 0.02328,0 0.210599,0.17145 0.416257,0.381 0.205658,0.20955 0.354874,0.381 0.33159,0.381 -0.02328,0 -0.210599,-0.17145 -0.416256,-0.381 z M 50.969337,56.34567 c 0.813918,-0.814917 1.498902,-1.481667 1.522185,-1.481667 0.02328,0 -0.6236,0.66675 -1.437519,1.481667 -0.813918,0.814917 -1.498902,1.481667 -1.522185,1.481667 -0.02328,0 0.6236,-0.66675 1.437519,-1.481667 z m 38.681865,0.8255 c -0.105308,-0.134286 -0.102319,-0.137281 0.03197,-0.03197 0.08149,0.06391 0.148167,0.130585 0.148167,0.148166 0,0.06968 -0.06953,0.02483 -0.180137,-0.1162 z M 62.653337,52.630703 c 0,-0.01758 0.06667,-0.08426 0.148167,-0.148166 0.134286,-0.105315 0.137281,-0.10232 0.03197,0.03197 -0.110606,0.141034 -0.180134,0.185884 -0.180134,0.1162 z M 13.959201,51.159837 c -0.105315,-0.134287 -0.10232,-0.137282 0.03197,-0.03197 0.08149,0.06391 0.148166,0.130585 0.148166,0.148166 0,0.06968 -0.06953,0.02483 -0.180133,-0.116199 z m 47.043136,-0.359834 c 0.08429,-0.09313 0.172295,-0.169333 0.195578,-0.169333 0.02328,0 -0.02663,0.0762 -0.110911,0.169333 -0.08429,0.09313 -0.172295,0.169334 -0.195578,0.169334 -0.02328,0 0.02663,-0.0762 0.110911,-0.169334 z M 35.560002,49.41337 c 0,-0.01758 0.06668,-0.08426 0.148167,-0.148167 0.134286,-0.105314 0.137281,-0.10232 0.03197,0.03197 -0.110606,0.141033 -0.180134,0.185884 -0.180134,0.1162 z M 54.44067,48.133003 c 0.157969,-0.162983 0.306267,-0.296333 0.329551,-0.296333 0.02328,0 -0.08691,0.13335 -0.244884,0.296333 -0.15797,0.162983 -0.306268,0.296333 -0.329551,0.296333 -0.02328,0 0.08692,-0.13335 0.244884,-0.296333 z M 49.276003,47.12737 c 0,-0.01758 0.06667,-0.08426 0.148167,-0.148167 0.134286,-0.105314 0.137281,-0.10232 0.03197,0.03197 -0.110606,0.141033 -0.180134,0.185884 -0.180134,0.1162 z m 8.043334,-1.862667 c 0,-0.01758 0.06668,-0.08426 0.148167,-0.148167 0.134286,-0.105314 0.137281,-0.10232 0.03197,0.03197 -0.110606,0.141033 -0.180133,0.185884 -0.180133,0.1162 z M 23.368001,25.781002 c 0.109369,-0.116417 0.217901,-0.211667 0.241184,-0.211667 0.02328,0 -0.04715,0.09525 -0.156517,0.211667 -0.109368,0.116416 -0.217901,0.211666 -0.241184,0.211666 -0.02328,0 0.04715,-0.09525 0.156517,-0.211666 z M 48.84187,16.361834 c -0.105315,-0.134286 -0.10232,-0.137281 0.03197,-0.03197 0.08149,0.06391 0.148167,0.130585 0.148167,0.148166 0,0.06968 -0.06953,0.02483 -0.180133,-0.1162 z"
         id="path171" />
      <path
         style="fill:#494949;fill-opacity:1;stroke-width:0.0846667"
         d="m 57.853573,90.127672 c 5.08e-4,-0.2794 0.01628,-0.383489 0.03512,-0.231317 0.01884,0.152179 0.01846,0.380779 -8.63e-4,0.508 -0.01932,0.127228 -0.03474,0.0027 -0.03426,-0.276683 z m 8.377116,0.08467 c 9.4e-4,-0.186267 0.01828,-0.252501 0.03853,-0.147176 0.02025,0.105317 0.01948,0.257717 -0.0017,0.338667 -0.02119,0.08094 -0.03776,-0.0053 -0.03682,-0.191491 z m -16.762293,-0.635 c 0,-0.20955 0.01651,-0.295275 0.03669,-0.1905 0.02018,0.104775 0.02018,0.276225 0,0.381 -0.02018,0.104775 -0.03669,0.01905 -0.03669,-0.1905 z m -20.31769,-0.254 c 0,-0.256117 0.01587,-0.360892 0.03527,-0.232833 0.0194,0.128058 0.0194,0.337608 0,0.465666 -0.0194,0.128059 -0.03527,0.02328 -0.03527,-0.232833 z m 11.943152,-0.508 c 0,-0.442383 0.01427,-0.623358 0.03171,-0.402167 0.01744,0.221192 0.01744,0.583142 0,0.804334 -0.01744,0.221191 -0.03171,0.04022 -0.03171,-0.402167 z m -3.549909,-1.354667 c 0,-1.140883 0.01199,-1.607608 0.02663,-1.037167 0.01465,0.570442 0.01465,1.503892 0,2.074334 -0.01465,0.570442 -0.02663,0.103717 -0.02663,-1.037167 z m -4.824967,-0.719667 c -3.6e-5,-1.443566 0.01151,-2.04602 0.02565,-1.338783 0.01415,0.707238 0.01418,1.888338 6.6e-5,2.624667 -0.01411,0.736329 -0.02568,0.157683 -0.02572,-1.285884 z m 13.204998,1.100667 c -8.5e-5,-0.791633 0.01263,-1.126879 0.02828,-0.74499 0.01565,0.381889 0.01573,1.029589 1.69e-4,1.439333 -0.01555,0.409744 -0.02836,0.09729 -0.02846,-0.694343 z m 8.37868,0.04233 c 0,-0.48895 0.01399,-0.688976 0.0311,-0.4445 0.0171,0.244475 0.0171,0.644525 0,0.889 -0.0171,0.244475 -0.0311,0.04445 -0.0311,-0.4445 z m -13.205462,-1.905 c 8.4e-5,-0.6985 0.01323,-0.972981 0.02914,-0.609964 0.01591,0.363017 0.01581,0.934517 -2.54e-4,1.27 -0.01603,0.335484 -0.02904,0.03846 -0.02893,-0.660036 z M 29.159197,85.386339 c 8.4e-5,-0.6985 0.01323,-0.972984 0.02914,-0.609964 0.01591,0.363016 0.01581,0.934516 -2.54e-4,1.27 -0.01603,0.335483 -0.02904,0.03846 -0.02893,-0.660036 z m -1.663695,-1.289661 c 0.197908,-0.01783 0.521758,-0.01783 0.719666,0 0.197909,0.01783 0.03598,0.03241 -0.359833,0.03241 -0.395817,0 -0.557742,-0.01458 -0.359833,-0.03241 z m 47.794336,-5.92e-4 c 0.267758,-0.0168 0.705908,-0.0168 0.973667,0 0.267758,0.0168 0.04868,0.03055 -0.486834,0.03055 -0.535516,0 -0.754591,-0.01375 -0.486833,-0.03055 z m 6.44879,-7.049414 c 0.0079,-0.108579 0.273144,-0.127359 1.828486,-0.129477 1.819225,-0.0025 1.819225,-0.0025 0.02595,0.0228 -1.325325,0.01868 -1.802463,0.05247 -1.828487,0.129476 -0.01937,0.05731 -0.03104,0.04705 -0.02595,-0.0228 z M 17.970501,76.898666 c 0.733425,-0.0141 1.933575,-0.0141 2.667,0 0.733425,0.01409 0.13335,0.02563 -1.3335,0.02563 -1.46685,0 -2.066925,-0.01153 -1.3335,-0.02563 z m 13.970001,-8.5e-5 c 1.478492,-0.01297 3.897842,-0.01297 5.376334,0 1.478491,0.01297 0.268816,0.02359 -2.688167,0.02359 -2.956984,0 -4.166659,-0.01061 -2.688167,-0.02359 z m 27.007625,1.69e-4 c 7.851792,-0.02226 7.851792,-0.02226 7.875587,-3.112175 0.0238,-3.089917 0.0238,-3.089917 0.02221,0.0216 -0.0016,3.111494 -0.0016,3.111494 -7.875587,3.112148 -7.874,6.77e-4 -7.874,6.77e-4 -0.02221,-0.0216 z m 27.30828,0.0012 c 0.199145,-0.01789 0.503945,-0.01763 0.677334,5.93e-4 0.173397,0.01819 0.01046,0.03283 -0.362069,0.03252 -0.372533,-3.39e-4 -0.514401,-0.01519 -0.315265,-0.03308 z M 69.21179,72.898005 c 0,-2.211917 0.01094,-3.116792 0.02431,-2.010834 0.01337,1.105959 0.01337,2.915709 0,4.021667 -0.01337,1.105958 -0.02431,0.201083 -0.02431,-2.010833 z m -52.636773,0.446639 c 0.152176,-0.01884 0.380776,-0.01846 0.508,8.64e-4 0.127225,0.01932 0.0027,0.03474 -0.276683,0.03426 -0.2794,-5.08e-4 -0.383492,-0.01628 -0.231317,-0.03512 z m 3.300484,-0.0016 c 0.384175,-0.01569 1.012825,-0.01569 1.397,0 0.384175,0.01569 0.06985,0.02852 -0.6985,0.02852 -0.76835,0 -1.082675,-0.01283 -0.6985,-0.02852 z m 62.657358,-6.4e-5 c 0.386386,-0.01573 0.995986,-0.01564 1.354666,1.69e-4 0.358681,0.01583 0.04255,0.0287 -0.70252,0.02859 -0.745066,-8.5e-5 -1.038532,-0.01306 -0.652146,-0.02878 z m 3.804092,0.0019 c 0.1503,-0.0187 0.417,-0.01901 0.592666,-6.77e-4 0.175667,0.01833 0.05269,0.03363 -0.273278,0.03401 -0.325967,3.39e-4 -0.469689,-0.01462 -0.319388,-0.03332 z M 29.164543,64.981671 c 1.6e-5,-2.281767 0.01092,-3.203048 0.02424,-2.047291 0.01331,1.155757 0.0133,3.022657 -2.8e-5,4.148667 -0.01333,1.12601 -0.02422,0.180391 -0.02421,-2.101376 z m -11.231872,3.535132 c 0.479786,-0.01512 1.241786,-0.01506 1.693334,1.7e-4 0.451548,0.01519 0.059,0.02756 -0.872337,0.02749 -0.931334,-7.4e-5 -1.300782,-0.01251 -0.820997,-0.02763 z m 66.666219,2.54e-4 c 0.405102,-0.01549 1.090903,-0.01556 1.523998,-1.69e-4 0.433095,0.0154 0.101651,0.02807 -0.736549,0.02816 -0.8382,8.4e-5 -1.192552,-0.01251 -0.787449,-0.028 z M 59.628397,67.394671 c 0,-0.20955 0.01651,-0.295275 0.03669,-0.1905 0.02018,0.104775 0.02018,0.276225 0,0.381 -0.02018,0.104775 -0.03669,0.01905 -0.03669,-0.1905 z m -2.387042,-0.04939 c 0.0041,-0.09863 0.02412,-0.118694 0.05115,-0.05115 0.02446,0.06112 0.02145,0.134144 -0.0067,0.162278 -0.02813,0.02813 -0.04814,-0.02187 -0.04447,-0.111125 z M 44.303447,66.150664 c 0.08238,-0.02147 0.196678,-0.02005 0.254,0.0031 0.05732,0.02319 -0.01008,0.04076 -0.149778,0.03903 -0.1397,-0.0017 -0.1866,-0.0207 -0.104222,-0.04217 z M 16.235822,64.964123 c 0.105317,-0.02025 0.257717,-0.01948 0.338666,0.0017 0.08095,0.02119 -0.0052,0.03776 -0.191487,0.03682 -0.186267,-9.4e-4 -0.252497,-0.01828 -0.147179,-0.03853 z m 4.317013,-0.0021 c 0.197908,-0.01782 0.521758,-0.01782 0.719666,0 0.197909,0.01783 0.03598,0.03241 -0.359833,0.03241 -0.395817,0 -0.557742,-0.01459 -0.359833,-0.03241 z m 61.511501,0.0012 c 0.128698,-0.01946 0.319198,-0.01894 0.423333,0.0012 0.104135,0.0201 -0.0012,0.03602 -0.233997,0.03538 -0.232833,-6.77e-4 -0.318034,-0.01708 -0.189336,-0.03654 z m 5.121169,9.99e-4 c 0.104775,-0.02018 0.276226,-0.02018 0.381001,0 0.104775,0.02018 0.01905,0.03669 -0.1905,0.03669 -0.209551,0 -0.295276,-0.01651 -0.190501,-0.03669 z M 18.139834,60.136324 c 0.174625,-0.01827 0.460376,-0.01827 0.635001,0 0.174625,0.01827 0.03175,0.03321 -0.317501,0.03321 -0.34925,0 -0.492125,-0.01494 -0.3175,-0.03321 z m 67.013671,-3.39e-4 c 0.197909,-0.01782 0.521759,-0.01782 0.719667,0 0.197908,0.01783 0.03598,0.03241 -0.359833,0.03241 -0.395817,0 -0.557742,-0.01459 -0.359834,-0.03241 z M 15.599834,56.581337 c 0.128059,-0.0194 0.337609,-0.0194 0.465667,0 0.128058,0.0194 0.02328,0.03527 -0.232833,0.03527 -0.256117,0 -0.360892,-0.01587 -0.232834,-0.03527 z m 72.01052,-6.78e-4 c 0.15218,-0.01884 0.38078,-0.01845 0.508,8.64e-4 0.127229,0.01932 0.0027,0.03474 -0.276682,0.03426 -0.2794,-5.08e-4 -0.383489,-0.01628 -0.231318,-0.03513 z M 44.642114,54.80533 c 0.08238,-0.02147 0.196678,-0.02005 0.254,0.0031 0.05732,0.02319 -0.01008,0.04076 -0.149778,0.03903 -0.1397,-0.0017 -0.1866,-0.0207 -0.104222,-0.04217 z m 14.984574,-0.576327 c 9.4e-4,-0.186266 0.01828,-0.252497 0.03853,-0.147179 0.02025,0.105318 0.01948,0.257718 -0.0017,0.338667 -0.02119,0.08095 -0.03776,-0.0052 -0.03682,-0.191488 z m 7.188684,-0.04233 c 0,-0.116417 0.01922,-0.164042 0.0427,-0.105833 0.02349,0.05821 0.02349,0.153458 0,0.211666 -0.02349,0.05821 -0.0427,0.01058 -0.0427,-0.105833 z m -17.356668,-3.89467 c 0,-0.116417 0.01922,-0.164042 0.04271,-0.105833 0.02349,0.05821 0.02349,0.153458 0,0.211667 -0.02349,0.05821 -0.04271,0.01058 -0.04271,-0.105834 z m -9.557642,-0.254 c 0,-0.20955 0.01651,-0.295275 0.03669,-0.1905 0.02018,0.104775 0.02018,0.276225 0,0.381 -0.02018,0.104775 -0.03669,0.01905 -0.03669,-0.1905 z m 9.557642,-0.254 c 0,-0.116417 0.01922,-0.164042 0.04271,-0.105833 0.02349,0.05821 0.02349,0.153458 0,0.211666 -0.02349,0.05821 -0.04271,0.01058 -0.04271,-0.105833 z M 15.686112,48.20133 c 0.08238,-0.02147 0.196678,-0.02005 0.254,0.0031 0.05732,0.02319 -0.01008,0.04076 -0.149778,0.03903 -0.1397,-0.0017 -0.1866,-0.0207 -0.104222,-0.04217 z m 72.093051,-0.0012 c 0.105317,-0.02025 0.257717,-0.01948 0.338666,0.0017 0.08094,0.02119 -0.0052,0.03776 -0.19149,0.03682 -0.186267,-9.4e-4 -0.252502,-0.01828 -0.147176,-0.03853 z M 45.026795,45.238833 c 0.06112,-0.02446 0.134144,-0.02145 0.162278,0.0067 0.02813,0.02813 -0.02187,0.04814 -0.111125,0.04447 -0.09863,-0.0041 -0.118695,-0.02413 -0.05115,-0.05115 z m 17.351376,-1.783527 c 0.803275,-0.01392 2.117725,-0.01392 2.921,0 0.803275,0.01392 0.14605,0.0253 -1.4605,0.0253 -1.60655,0 -2.263775,-0.01138 -1.4605,-0.0253 z m 6.825823,-2.307303 c 0,-0.48895 0.01399,-0.688975 0.0311,-0.4445 0.0171,0.244475 0.0171,0.644525 0,0.889 -0.0171,0.244475 -0.0311,0.04445 -0.0311,-0.4445 z M 43.371667,39.901914 c 0.128698,-0.01946 0.319198,-0.01894 0.423333,0.0012 0.104135,0.0201 -0.0012,0.03602 -0.233997,0.03538 -0.232834,-6.77e-4 -0.318035,-0.01708 -0.189336,-0.03654 z m 15.071396,-3.918578 c 0,-0.20955 0.01651,-0.295275 0.03669,-0.1905 0.02018,0.104775 0.02018,0.276225 0,0.381 -0.02018,0.104775 -0.03669,0.01905 -0.03669,-0.1905 z m 10.769601,-2.497667 c 0.0023,-1.947334 0.0023,-1.947334 2.648201,-1.949173 2.645861,-0.0018 2.645861,-0.0018 0.02272,0.02237 -2.623136,0.02421 -2.623136,0.02421 -2.648201,1.949172 -0.02506,1.924963 -0.02506,1.924963 -0.02272,-0.02237 z m -53.48583,1.594927 c 0.05821,-0.02349 0.153459,-0.02349 0.211667,0 0.05821,0.02349 0.01058,0.0427 -0.105833,0.0427 -0.116417,0 -0.164042,-0.01922 -0.105834,-0.0427 z m 72.136005,0 c 0.05821,-0.02349 0.153458,-0.02349 0.211667,0 0.05821,0.02349 0.01058,0.0427 -0.105834,0.0427 -0.116416,0 -0.164041,-0.01922 -0.105833,-0.0427 z M 29.159607,22.987001 c 8.5e-5,-0.745066 0.01306,-1.038532 0.02878,-0.652146 0.01572,0.386386 0.01564,0.995986 -1.7e-4,1.354666 -0.01583,0.358682 -0.0287,0.04255 -0.02859,-0.70252 z m 8.385502,-1.439333 c 3.4e-5,-1.490133 0.01155,-2.087809 0.0256,-1.328169 0.01405,0.759642 0.01402,1.978842 -6.2e-5,2.709334 -0.01408,0.730493 -0.02557,0.108968 -0.02554,-1.381165 z m 3.552694,1.312333 c 0,-0.76835 0.01284,-1.082675 0.02852,-0.6985 0.01569,0.384175 0.01569,1.012825 0,1.397 -0.01569,0.384176 -0.02852,0.06985 -0.02852,-0.6985 z m 8.377587,0.635 c -2.54e-4,-0.4191 0.01406,-0.601224 0.03182,-0.404721 0.01776,0.196503 0.01797,0.539403 5.08e-4,0.762 -0.01754,0.222597 -0.03207,0.06182 -0.03232,-0.357279 z m -3.550342,-2.413 c 0,-0.954616 0.01235,-1.345141 0.02744,-0.867833 0.01509,0.477308 0.01509,1.258358 0,1.735667 -0.01509,0.477308 -0.02744,0.08678 -0.02744,-0.867834 z m -13.207517,-0.254 c 0,-1.04775 0.01215,-1.476375 0.02701,-0.9525 0.01485,0.523875 0.01485,1.381125 0,1.905 -0.01485,0.523875 -0.02701,0.09525 -0.02701,-0.9525 z m 21.584729,-0.04233 c 2.54e-4,-0.465667 0.01444,-0.645365 0.0316,-0.399329 0.01716,0.246037 0.01698,0.627037 -4.24e-4,0.846667 -0.01735,0.21963 -0.03139,0.01833 -0.03117,-0.447338 z m -25.148459,-1.397 c 0,-0.34925 0.01494,-0.492125 0.03321,-0.3175 0.01827,0.174625 0.01827,0.460375 0,0.635 -0.01827,0.174625 -0.03321,0.03175 -0.03321,-0.3175 z m 11.935771,-0.127 c 5.08e-4,-0.2794 0.01628,-0.383493 0.03512,-0.231317 0.01884,0.152176 0.01846,0.380776 -8.63e-4,0.508 -0.01932,0.127224 -0.03474,0.0027 -0.03426,-0.276683 z m 8.377116,-0.592667 c 9.39e-4,-0.186267 0.01828,-0.252497 0.03853,-0.147179 0.02025,0.105317 0.01948,0.257717 -0.0017,0.338666 -0.02119,0.08095 -0.03776,-0.0052 -0.03682,-0.191487 z m 8.38602,-0.465667 c 0,-0.256116 0.01587,-0.360891 0.03527,-0.232833 0.0194,0.128058 0.0194,0.337608 0,0.465667 -0.0194,0.128058 -0.03527,0.02328 -0.03527,-0.232834 z m 8.376272,-0.08467 c 0,-0.162984 0.01742,-0.229659 0.03872,-0.148167 0.02129,0.08149 0.02129,0.214842 0,0.296333 -0.0213,0.08149 -0.03872,0.01482 -0.03872,-0.148166 z"
         id="path169" />
      <path
         style="fill:#333333;fill-opacity:1;stroke-width:0.0846667"
         d="m 29.910018,92.159444 c -0.190555,-0.163102 -0.433717,-0.4768 -0.540361,-0.697095 -0.192199,-0.397036 -0.193934,-0.43097 -0.197943,-3.87328 -0.004,-3.47273 -0.004,-3.47273 -1.655046,-3.524418 -0.915143,-0.02865 -1.801944,-0.09839 -1.989666,-0.156472 -1.529083,-0.473109 -2.874732,-1.818758 -3.347841,-3.347841 -0.05808,-0.187722 -0.127823,-1.074523 -0.156472,-1.989666 -0.05169,-1.651 -0.05169,-1.651 -3.523021,-1.651972 -3.461128,-9.65e-4 -3.472516,-0.0015 -3.873274,-0.197943 -0.221068,-0.108334 -0.535393,-0.35288 -0.6985,-0.543435 -0.286305,-0.334484 -0.29656,-0.370295 -0.29656,-1.035651 0,-0.665355 0.01025,-0.701167 0.29656,-1.03565 0.163107,-0.190555 0.477432,-0.434105 0.6985,-0.541223 0.40194,-0.194761 0.40194,-0.194761 3.852107,-0.170006 3.450167,0.02475 3.450167,0.02475 3.450167,-2.385272 0,-2.410028 0,-2.410028 -1.531731,-2.472162 -0.842452,-0.03417 -2.304744,-0.03453 -3.249538,-7.62e-4 -2.136972,0.07631 -2.489642,0.0037 -3.113898,-0.641205 -0.402167,-0.415462 -0.402167,-0.415462 -0.402167,-1.120169 0,-0.681305 0.0097,-0.716063 0.292651,-1.046604 0.171613,-0.200492 0.478012,-0.422106 0.740833,-0.535831 0.442949,-0.19167 0.484435,-0.193727 3.552352,-0.176133 1.707293,0.0098 3.240818,-0.0078 3.407833,-0.03916 0.303665,-0.057 0.303665,-0.057 0.303665,-2.418242 0,-2.655363 0.573259,-2.37797 -4.953,-2.396693 -2.302274,-0.0078 -2.412174,-0.03392 -3.032609,-0.720664 -0.303391,-0.335818 -0.311725,-0.362803 -0.311725,-1.009428 0,-0.599194 0.02416,-0.697742 0.246246,-1.004319 0.148681,-0.205248 0.423634,-0.428328 0.693957,-0.563036 0.447712,-0.223104 0.447712,-0.223104 3.902421,-0.223104 3.45471,0 3.45471,0 3.45471,-2.409467 0,-2.409467 0,-2.409467 -3.4925,-2.434167 -3.401397,-0.02406 -3.501485,-0.02951 -3.836942,-0.209069 -0.189444,-0.101402 -0.484719,-0.339637 -0.656167,-0.52941 -0.302802,-0.335165 -0.311725,-0.363862 -0.311725,-1.002478 0,-0.562613 0.03068,-0.702584 0.212709,-0.970464 0.11699,-0.172166 0.393215,-0.419135 0.613833,-0.548821 0.401125,-0.235792 0.401125,-0.235792 3.935958,-0.260455 3.534834,-0.02466 3.534834,-0.02466 3.534834,-2.430634 0,-2.40597 0,-2.40597 -3.4925,-2.43067 -3.4925,-0.0247 -3.4925,-0.0247 -3.933484,-0.269076 -0.242542,-0.134406 -0.537817,-0.384104 -0.656167,-0.554884 -0.18375,-0.26515 -0.215183,-0.40329 -0.215183,-0.945675 0,-0.682225 0.127999,-0.961718 0.616363,-1.345865 0.512461,-0.403101 0.713679,-0.422866 4.304949,-0.422866 3.376022,0 3.376022,0 3.376022,-2.413001 0,-2.413 0,-2.413 -3.376022,-2.413 -3.613648,0 -3.757666,-0.01458 -4.33089,-0.438381 -0.451757,-0.333998 -0.590422,-0.649734 -0.590422,-1.344373 0,-0.697675 0.146793,-1.003497 0.645788,-1.345414 0.59731,-0.409284 0.708392,-0.420168 4.328379,-0.424116 3.407834,-0.0037 3.407834,-0.0037 3.409085,-1.421883 8.55e-4,-0.9688 0.04202,-1.591129 0.129911,-1.964022 0.38969,-1.653321 1.687169,-3.041079 3.340171,-3.57258 0.449056,-0.144389 0.843775,-0.185004 2.144865,-0.220697 1.594533,-0.04374 1.594533,-0.04374 1.570843,-3.482639 -0.02317,-3.362897 -0.01969,-3.447316 0.157352,-3.819896 0.217585,-0.457907 0.310584,-0.572526 0.706932,-0.871278 0.263047,-0.198275 0.384239,-0.229389 0.893488,-0.229389 0.5236,0 0.628244,0.02874 0.940379,0.258288 0.224954,0.165434 0.436404,0.431763 0.588179,0.740833 0.236963,0.482546 0.236963,0.482546 0.208563,2.30288 -0.01562,1.001183 -0.0019,2.554344 0.03047,3.451469 0.05886,1.631136 0.05886,1.631136 2.441399,1.608667 2.382535,-0.02247 2.382535,-0.02247 2.382712,-3.45147 1.69e-4,-3.429 1.69e-4,-3.429 0.236963,-3.911546 0.151752,-0.309256 0.362912,-0.5753 0.588002,-0.740833 0.312135,-0.229546 0.416778,-0.258288 0.940379,-0.258288 0.509249,0 0.630441,0.03111 0.893488,0.229389 0.396136,0.298593 0.489159,0.413167 0.707384,0.871278 0.176056,0.369587 0.181613,0.483718 0.185549,3.81 0.0041,3.429001 0.0041,3.429001 2.386661,3.45147 2.382603,0.02247 2.382603,0.02247 2.439458,-1.524 0.03127,-0.850559 0.04495,-2.42277 0.0304,-3.493803 -0.02646,-1.947334 -0.02646,-1.947334 0.222164,-2.39612 0.136743,-0.246833 0.401424,-0.561158 0.58818,-0.6985 0.301744,-0.221906 0.407393,-0.249714 0.94872,-0.249714 0.603303,0 0.613266,0.0037 1.035553,0.383361 0.71621,0.643935 0.711789,0.616179 0.724175,4.545628 0.01075,3.410679 0.01075,3.410679 2.402583,3.433163 2.391834,0.02249 2.391834,0.02249 2.410024,-1.354666 0.01,-0.757433 0.01953,-2.329905 0.02117,-3.494381 0.003,-2.101119 0.0046,-2.12044 0.219267,-2.539219 0.120858,-0.235798 0.37592,-0.543743 0.578082,-0.697938 0.333938,-0.254703 0.410597,-0.275948 0.995732,-0.275948 0.633939,0 0.633939,0 1.086481,0.452541 0.289646,0.289646 0.485585,0.571553 0.544339,0.783167 0.05892,0.212199 0.09197,1.551276 0.09227,3.738459 4.72e-4,3.407834 4.72e-4,3.407834 2.409939,3.407834 2.409467,0 2.409467,0 2.434167,-3.494966 0.0247,-3.494966 0.0247,-3.494966 0.240989,-3.915052 0.11986,-0.232797 0.37759,-0.543114 0.578082,-0.696035 0.322257,-0.245793 0.421671,-0.275948 0.909749,-0.275948 0.809701,0 1.277968,0.31555 1.633363,1.100667 0.164345,0.363063 0.172552,0.543426 0.174324,3.831167 0.0019,3.450167 0.0019,3.450167 2.411363,3.450167 2.409503,0 2.409503,0 2.434167,-3.534834 0.02466,-3.534833 0.02466,-3.534833 0.23633,-3.911879 0.116416,-0.207376 0.376553,-0.502651 0.578082,-0.656167 0.327164,-0.249221 0.425114,-0.279121 0.914371,-0.279121 0.601237,0 0.886928,0.111467 1.228381,0.479275 0.547277,0.589517 0.534771,0.49598 0.581166,4.346726 0.04233,3.513667 0.04233,3.513667 1.608667,3.567707 1.704773,0.05882 2.114361,0.14191 3.005667,0.609764 0.654694,0.343654 1.617208,1.306168 1.960862,1.960862 0.4774,0.909493 0.553756,1.294474 0.59965,3.023368 0.04205,1.584033 0.04205,1.584033 3.566764,1.608666 3.868843,0.02704 3.765567,0.01369 4.357785,0.563466 0.373575,0.346809 0.479273,0.625141 0.479273,1.262056 0,0.548164 -0.018,0.602658 -0.312793,0.947059 -0.172034,0.200985 -0.505409,0.45512 -0.740833,0.564746 -0.427364,0.199003 -0.433511,0.199321 -3.878208,0.200146 -3.450167,8.27e-4 -3.450167,8.27e-4 -3.450167,2.410331 0,2.409503 0,2.409503 3.534834,2.434166 3.463739,0.02417 3.541886,0.02844 3.885573,0.212244 0.192905,0.103169 0.48818,0.348152 0.656167,0.544406 0.293006,0.342314 0.305427,0.383137 0.305427,1.003681 0,0.620544 -0.01242,0.661367 -0.305427,1.00368 -0.167987,0.196255 -0.463262,0.441238 -0.656167,0.544407 -0.343687,0.183807 -0.421834,0.188076 -3.885573,0.212243 -3.534834,0.02466 -3.534834,0.02466 -3.534834,2.434167 0,2.409503 0,2.409503 3.450167,2.41033 3.444697,8.47e-4 3.450844,0.0011 3.878208,0.200146 0.235424,0.109626 0.568799,0.363761 0.740833,0.564746 0.296765,0.346701 0.312776,0.396103 0.312479,0.964021 0,0.678587 -0.140597,0.989471 -0.606687,1.344978 -0.572296,0.43651 -0.570154,0.436268 -4.261333,0.481282 -3.471334,0.04233 -3.471334,0.04233 -3.493818,2.434167 -0.02249,2.391834 -0.02249,2.391834 3.376843,2.391834 2.421466,0 3.499578,0.02962 3.747821,0.102964 0.221471,0.06544 0.510497,0.26401 0.792988,0.544812 0.4445,0.441847 0.4445,0.441847 0.4445,1.075786 0,0.585135 -0.02124,0.661794 -0.275946,0.995733 -0.154136,0.202087 -0.462187,0.457269 -0.697857,0.578082 -0.415467,0.212992 -0.451603,0.216356 -2.369887,0.220669 -1.071389,0.0024 -2.643896,0.01193 -3.494462,0.02117 -1.546486,0.01679 -1.546486,0.01679 -1.524,2.40862 0.02248,2.391834 0.02248,2.391834 3.458893,2.402953 3.279928,0.01061 3.453427,0.01906 3.81,0.18555 0.42788,0.19978 0.538802,0.287085 0.860942,0.677661 0.206197,0.249996 0.232317,0.350893 0.232317,0.897463 0,0.54943 -0.02729,0.653473 -0.253204,0.965342 -0.147109,0.203069 -0.43981,0.447874 -0.698501,0.584204 -0.438539,0.231102 -0.465836,0.23437 -1.799962,0.21548 -0.745067,-0.01055 -2.317276,0.0033 -3.493803,0.03076 -2.139135,0.04995 -2.139135,0.04995 -2.116666,2.432182 0.02247,2.382236 0.02247,2.382236 3.451469,2.382413 3.429,1.7e-4 3.429,1.7e-4 3.911549,0.236963 0.309254,0.151752 0.575293,0.362912 0.740834,0.588002 0.231131,0.314292 0.258284,0.41489 0.258284,0.956834 0,0.535197 -0.02882,0.6454 -0.247837,0.947745 -0.16002,0.220905 -0.422512,0.427801 -0.740833,0.583929 -0.492997,0.241803 -0.492997,0.241803 -3.947795,0.242076 -3.454805,2.75e-4 -3.454805,2.75e-4 -3.47671,1.481941 -0.01624,1.098703 -0.06068,1.623911 -0.171912,2.032 -0.370726,1.360104 -1.28248,2.515786 -2.430503,3.080756 -0.891343,0.43865 -1.565143,0.556708 -3.187245,0.558441 -1.375833,0.0015 -1.375833,0.0015 -1.375833,3.419828 0,3.659344 -0.01402,3.799247 -0.438381,4.37322 -0.333277,0.450782 -0.650109,0.590423 -1.339619,0.590423 -0.68951,0 -1.006342,-0.139641 -1.339619,-0.590423 -0.423803,-0.573219 -0.438381,-0.717237 -0.438381,-4.330887 0,-3.376024 0,-3.376024 -2.409504,-3.376024 -2.409503,0 -2.409503,0 -2.434166,3.534834 -0.02466,3.534833 -0.02466,3.534833 -0.253302,3.923749 -0.12575,0.213902 -0.361334,0.490127 -0.523518,0.613834 -0.260645,0.198806 -0.371183,0.224917 -0.952144,0.224917 -0.566053,0 -0.700356,-0.02986 -0.967773,-0.215181 -0.17078,-0.118355 -0.420478,-0.41363 -0.554884,-0.656166 -0.244376,-0.440987 -0.244376,-0.440987 -0.269076,-3.933487 -0.0247,-3.4925 -0.0247,-3.4925 -2.434167,-3.4925 -2.409467,0 -2.409467,0 -2.409467,3.454713 0,3.454705 0,3.454705 -0.219306,3.894794 -0.120619,0.242054 -0.3579,0.55433 -0.527291,0.693962 -0.287217,0.236745 -0.355195,0.253865 -1.008116,0.253865 -0.687815,0 -0.706203,-0.0055 -1.045175,-0.311726 -0.687907,-0.621479 -0.713445,-0.729607 -0.716281,-3.032608 -0.0014,-1.1176 -0.0109,-2.689225 -0.02117,-3.4925 -0.01866,-1.4605 -0.01866,-1.4605 -2.437218,-1.4605 -2.418553,0 -2.418553,0 -2.40009,3.407834 0.01835,3.386717 0.01726,3.41061 -0.175791,3.856016 -0.113736,0.262416 -0.33597,0.569485 -0.536151,0.740833 -0.33152,0.283769 -0.36364,0.292651 -1.058418,0.292651 -0.716521,0 -0.716521,0 -1.119468,-0.402946 -0.616142,-0.616145 -0.707799,-1.0282 -0.630362,-2.833861 0.03389,-0.790177 0.03382,-2.252049 -1.69e-4,-3.248609 -0.06174,-1.811918 -0.06174,-1.811918 -2.472803,-1.811918 -2.411059,0 -2.411059,0 -2.387559,3.450167 0.0235,3.450167 0.0235,3.450167 -0.172315,3.854645 -0.107697,0.22247 -0.350386,0.536795 -0.539308,0.6985 -0.33235,0.28448 -0.36634,0.294022 -1.047677,0.294022 -0.688251,0 -0.711739,-0.0069 -1.038146,-0.301718 -0.18368,-0.165939 -0.421915,-0.480264 -0.529411,-0.6985 -0.191573,-0.388917 -0.194869,-0.440411 -0.166253,-2.598116 0.01606,-1.210733 0.0022,-2.763308 -0.03075,-3.450167 -0.05995,-1.248833 -0.05995,-1.248833 -2.472297,-1.248833 -2.412351,0 -2.412351,0 -2.382248,3.450167 0.0301,3.450167 0.0301,3.450167 -0.165343,3.846949 -0.107497,0.218236 -0.345731,0.532561 -0.529411,0.6985 -0.326408,0.294894 -0.349895,0.301718 -1.038146,0.301718 -0.682497,0 -0.714854,-0.0091 -1.050647,-0.296562 z M 66.835089,72.92819 c -0.0092,-3.981355 -0.0097,-3.9925 -0.203725,-4.393217 -0.120289,-0.248485 -0.654906,-0.879549 -1.40146,-1.654286 -1.333061,-1.383389 -1.742865,-2.030249 -1.900379,-2.999683 -0.0454,-0.2794 -0.08276,-1.504861 -0.08303,-2.723248 -4.9e-4,-2.215248 -4.9e-4,-2.215248 -0.69899,-2.556261 -1.284949,-0.627322 -2.161301,-1.534626 -2.609385,-2.701549 -0.231155,-0.601984 -0.31781,-2.028051 -0.167293,-2.753089 0.254799,-1.227364 1.321914,-2.619786 2.440156,-3.184032 1.594716,-0.804668 3.51826,-0.656664 5.047752,0.388392 1.458849,0.996788 2.246166,2.9683 1.886693,4.724453 -0.325954,1.592404 -1.230274,2.750983 -2.708595,3.470143 -0.82997,0.403757 -0.82997,0.403757 -0.803898,2.700141 0.02338,2.059869 0.04276,2.330004 0.188126,2.622822 0.08913,0.179542 0.706177,0.874398 1.371215,1.544125 1.071758,1.079313 1.250574,1.301244 1.573612,1.953021 0.364451,0.735337 0.364451,0.735337 0.388517,5.123377 0.02407,4.388039 0.02407,4.388039 2.730656,4.388039 2.70659,0 2.70659,0 2.685267,-22.669501 -0.02132,-22.669502 -0.02132,-22.669502 -2.688322,-22.669502 -2.667001,0 -2.667001,0 -2.671027,6.180667 -0.004,6.180667 -0.004,6.180667 -0.219301,6.646334 -0.28946,0.626141 -0.564478,0.933169 -1.103169,1.231566 -0.451504,0.250101 -0.451504,0.250101 -3.922837,0.292434 -3.105589,0.03787 -3.507017,0.05841 -3.810001,0.194905 -0.421468,0.189874 -4.103497,3.827842 -4.430107,4.377096 -0.221306,0.372165 -0.227764,0.423208 -0.27853,2.201333 -0.07703,2.698091 -0.105973,2.756486 -2.623585,5.293796 -1.892475,1.907281 -2.362767,2.282347 -3.282731,2.61804 -0.467768,0.170688 -0.656235,0.174597 -10.424715,0.216164 -9.948333,0.04233 -9.948333,0.04233 -9.948333,4.191001 0,4.148667 0,4.148667 4.820378,4.170539 5.708917,0.02591 5.279427,0.111291 6.803785,-1.352638 0.569512,-0.546935 1.083752,-0.958988 1.383298,-1.108416 0.921516,-0.459698 1.110024,-0.479257 4.687873,-0.48641 3.302,-0.0066 3.302,-0.0066 3.706735,-0.844605 0.307711,-0.637116 0.532993,-0.968169 0.939763,-1.380991 1.825263,-1.852419 4.895518,-1.848925 6.730996,0.0077 0.971193,0.98236 1.36484,1.972185 1.36484,3.431885 0,0.667887 -0.04271,0.962344 -0.21328,1.470468 -0.677368,2.017841 -2.401912,3.241594 -4.573765,3.245587 -1.850526,0.0034 -3.424814,-1.016315 -4.275519,-2.769388 -0.37777,-0.778482 -0.37777,-0.778482 -3.474188,-0.781922 -2.660259,-0.003 -3.154109,0.01622 -3.50599,0.136117 -0.315679,0.107562 -0.624838,0.347385 -1.348582,1.046132 -1.017749,0.982594 -1.346503,1.219615 -2.124344,1.531575 -0.508,0.203738 -0.508,0.203738 -5.672667,0.246071 -5.164667,0.04233 -5.164667,0.04233 -5.187105,2.623792 -0.01234,1.419802 -0.004,2.629561 0.01858,2.688354 0.0329,0.08573 3.759411,0.102668 18.818439,0.08554 18.77742,-0.02135 18.77742,-0.02135 18.768171,-4.012836 z M 55.963984,69.461207 c 1.478346,-0.804617 1.726258,-2.655113 0.508331,-3.794342 -0.516677,-0.483291 -0.928923,-0.660792 -1.565978,-0.674262 -1.573244,-0.03327 -2.864142,1.746106 -2.282083,3.145621 0.593481,1.426977 2.072317,2.012795 3.33973,1.322983 z M 48.97967,58.214287 c 0.410267,-0.197927 3.681087,-3.430665 3.903734,-3.858284 0.129104,-0.247956 0.163344,-0.593506 0.209738,-2.116666 0.08003,-2.627315 0.176966,-2.842574 2.246918,-4.989373 2.173466,-2.254155 3.136211,-3.020155 4.450791,-3.541228 0.314395,-0.12462 0.821216,-0.150675 3.66682,-0.188504 3.302,-0.0439 3.302,-0.0439 3.323735,-6.034063 0.02173,-5.990167 0.02173,-5.990167 -4.169834,-5.990167 -4.191568,0 -4.191568,0 -4.191568,2.700415 0,2.47303 -0.01445,2.747193 -0.171584,3.255939 -0.324295,1.049946 -0.741467,1.530534 -5.114345,5.891804 -3.463828,3.454637 -4.112072,4.138399 -4.112072,4.337385 0,0.129924 0.09748,0.526622 0.216628,0.88155 0.168737,0.502656 0.21698,0.816577 0.218217,1.419949 0.0019,0.902754 -0.109392,1.425622 -0.453017,2.129293 -0.832228,1.704231 -2.384439,2.667 -4.299828,2.667 -2.194454,0 -3.973479,-1.338876 -4.604814,-3.465534 -0.168821,-0.568676 -0.179371,-1.911665 -0.01973,-2.511182 0.609427,-2.2886 2.89619,-3.835131 5.189788,-3.50984 0.613036,0.08694 1.241988,0.268431 1.643098,0.474125 0.216085,0.11081 0.270418,0.06021 4.579166,-4.264215 3.735974,-3.74957 4.374618,-4.426266 4.459154,-4.724845 0.06488,-0.229154 0.09867,-1.193169 0.09867,-2.815167 0,-2.466677 0,-2.466677 -4.186524,-2.466677 -4.186525,0 -4.186525,0 -4.212167,3.3655 -0.02553,3.350096 -0.02656,3.367245 -0.225698,3.7465 -0.273403,0.52069 -0.488741,0.739949 -0.985278,1.003215 -0.423334,0.224452 -0.423334,0.224452 -5.266779,0.248883 -4.843444,0.02443 -4.843444,0.02443 -4.872117,4.191 -0.0227,3.299127 -0.05329,4.234019 -0.146915,4.490546 -0.176814,0.484457 -0.695136,1.021932 -1.2045,1.249009 -0.43337,0.193196 -0.532324,0.200603 -3.093524,0.231551 C 29.21,50.054176 29.21,50.054176 29.21,54.238486 c 0,4.184309 0,4.184309 9.7155,4.161747 9.399227,-0.02183 9.726526,-0.02788 10.054168,-0.185946 z m 16.130489,-1.715766 c 0.594327,-0.191946 1.269408,-0.811988 1.524251,-1.399982 0.484127,-1.117016 0.02078,-2.360202 -1.113902,-2.988637 -0.391881,-0.217041 -0.54126,-0.251272 -1.089171,-0.24959 -0.728269,0.0022 -1.145384,0.175387 -1.658445,0.688447 -0.900522,0.900522 -0.944055,2.247468 -0.103502,3.202387 0.359972,0.40895 0.652993,0.595755 1.211614,0.772424 0.46531,0.147158 0.711481,0.142141 1.229155,-0.02505 z M 45.67767,52.195742 c 0.186266,-0.08934 0.515464,-0.342924 0.731549,-0.56353 0.934809,-0.954361 0.885049,-2.432989 -0.112198,-3.33394 -1.176064,-1.062505 -2.863839,-0.781998 -3.680608,0.611713 -0.265616,0.453239 -0.357365,1.279417 -0.19678,1.771936 0.230059,0.705594 0.864756,1.365651 1.564703,1.627222 0.372223,0.139101 1.295827,0.07725 1.693334,-0.113401 z M 33.951335,43.663458 c 0,-4.243962 0.02709,-4.54848 0.462917,-5.203935 0.255726,-0.384592 0.802693,-0.742204 1.316148,-0.860508 0.236032,-0.05438 2.119632,-0.08832 4.973103,-0.08961 4.593167,-0.0021 4.593167,-0.0021 4.593167,-3.007737 0,-3.005667 0,-3.005667 -8.043334,-3.005667 -8.043334,0 -8.043334,0 -8.043334,8.043334 0,8.043334 0,8.043334 2.370667,8.043334 2.370666,0 2.370666,0 2.370666,-3.919212 z"
         id="path167" />
    </g>
    <path
       style="fill:#000000;stroke:none;stroke-width:1.56122"
       d="m 61.087157,285.66067 c -0.539029,-1.4047 -0.990811,-7.59002 -1.00396,-13.74517 -0.01311,-6.15514 -0.540061,-11.96784 -1.170917,-12.9171 -0.630857,-0.94925 -4.636973,-2.10965 -8.902481,-2.57864 -10.195431,-1.12102 -15.649062,-6.88125 -17.201456,-18.1685 l -1.096266,-7.9708 H 18.699696 c -13.2490447,0 -17.91908426,-1.83603 -17.91908426,-7.04488 0,-3.57568 3.32656086,-4.63038 17.17345826,-5.4449 l 13.2704,-0.78062 0.465685,-8.89215 0.465683,-8.89215 -5.149354,-0.86938 c -2.832145,-0.47816 -9.291938,-1.04327 -14.355095,-1.2558 -10.2686681,-0.43104 -14.2160188,-3.48554 -10.4181626,-8.06168 1.5919129,-1.91813 5.1772742,-2.47269 15.9865046,-2.47269 H 32.154077 L 31.689272,176.80856 31.22447,167.05091 17.335877,166.2703 C 6.6580627,165.67015 3.0697394,164.88832 1.8141749,162.88841 c -2.9750878,-4.73883 1.3856113,-7.52902 12.0376941,-7.7023 16.298866,-0.26514 17.372601,-0.93532 17.372601,-10.84333 v -8.51634 l -13.2704,-0.78061 C 3.4421827,134.19219 0.78061174,133.22435 0.78061174,128.80094 c 0,-4.42341 2.66157096,-5.39126 17.17345826,-6.2449 l 13.2704,-0.78061 v -8.58673 -8.58673 L 18.214062,103.63529 C 3.7999073,102.56431 -1.3750074,99.791942 1.7501053,94.815032 3.0828462,92.69257 6.429596,91.944563 17.335877,91.331574 L 31.22447,90.550962 31.709212,82.917343 C 31.975821,78.718852 31.416702,74.503549 30.466724,73.550002 29.516746,72.596455 23.048164,71.465005 16.092096,71.035669 6.5800393,70.448574 3.040165,69.61019 1.8128829,67.653782 -1.4155197,62.50739 3.1396115,60.109404 16.193705,60.083197 c 6.549574,-0.01311 12.679846,-0.540061 13.622825,-1.170917 0.942979,-0.630857 2.20795,-4.308489 2.811047,-8.172517 1.91858,-12.29228 6.525622,-16.672593 19.473069,-18.514727 l 7.225846,-1.028077 0.780612,-13.874838 C 60.707121,6.6572268 61.489521,3.0694636 63.488991,1.8141749 c 5.146087,-3.2307675 7.544375,1.3245299 7.570585,14.3795301 0.01311,6.549574 0.606554,12.827006 1.318679,13.949847 0.873642,1.377514 4.03958,1.885308 9.73374,1.561223 l 8.438967,-0.480305 0.780612,-13.2704 C 92.185215,3.4421827 93.153058,0.78061174 97.576468,0.78061174 c 4.378522,0 5.314252,2.58757566 6.210282,17.17345826 l 0.81522,13.2704 8.97704,0.468217 8.97703,0.468217 V 19.490567 c 0,-13.8189386 1.62277,-18.70995526 6.20769,-18.70995526 4.46298,0 5.4269,2.63509906 6.2821,17.17345826 l 0.78061,13.2704 8.43897,0.480305 c 5.69416,0.324085 8.8601,-0.183709 9.73374,-1.561223 0.71212,-1.122841 1.30554,-7.400273 1.31868,-13.949847 0.0262,-13.0553962 2.42463,-17.6107659 7.57058,-14.378966 1.94443,1.2211544 2.70154,4.3520852 2.99835,12.399255 0.65382,17.726681 0.69145,17.791087 10.3942,17.791087 9.9898,0 10.28525,-0.469072 10.28525,-16.329371 0,-12.5249929 2.46439,-17.0516993 7.54667,-13.862114 1.94905,1.2231985 2.81106,4.8159171 3.43795,14.328793 0.46019,6.982945 1.59164,13.451206 2.51434,14.373914 0.92271,0.922708 5.11279,1.459518 9.31128,1.192909 l 7.63361,-0.484742 0.78062,-13.2704 c 0.85903,-14.6034572 1.81314,-17.17345826 6.37567,-17.17345826 4.22656,0 6.11411,5.83028216 6.11411,18.88531526 0,11.708323 -0.23235,11.404564 10.03691,13.121259 9.06618,1.515578 16.50389,9.494281 16.50389,17.704316 0,3.469883 0.87819,6.877254 1.95153,7.571934 1.07334,0.69468 7.92321,1.614332 15.22193,2.043668 l 13.2704,0.780612 v 4.68367 4.683671 l -13.2704,0.780612 c -7.29872,0.429336 -14.14859,1.348987 -15.22193,2.043668 -2.49093,1.612166 -2.54954,13.907297 -0.0781,16.378769 1.12847,1.128463 6.59183,1.873468 13.73877,1.873468 12.2742,0 15.61223,1.410234 15.61223,6.59578 0,3.967766 -6.10137,5.894006 -18.66928,5.894006 -11.53616,0 -12.55519,0.76029 -12.55519,9.36734 0,8.72441 0.92934,9.36734 13.54007,9.36734 12.658,0 17.6844,1.70184 17.6844,5.98758 0,5.08757 -3.39664,6.50221 -15.61223,6.50221 -7.14694,0 -12.6103,0.74501 -13.73877,1.87347 -2.30155,2.30155 -2.48884,14.73539 -0.24286,16.12348 0.89683,0.55428 7.74669,1.47393 15.22193,2.04367 13.32726,1.01577 13.60081,1.11825 14.08008,5.27481 0.58511,5.07477 -1.29379,5.71606 -18.44283,6.29462 l -11.70918,0.39503 -0.48967,7.7544 c -0.63842,10.10975 1.59471,11.75353 16.01,11.7848 12.69264,0.0275 15.40334,1.20968 14.66982,6.39755 -0.49738,3.5177 -1.27042,3.77218 -13.7973,4.54172 -7.29872,0.44837 -14.14859,1.36803 -15.22193,2.04368 -2.49104,1.56806 -2.5498,13.8724 -0.0781,16.34415 1.12847,1.12847 6.59183,1.87347 13.73877,1.87347 12.19186,0 15.61223,1.41637 15.61223,6.46499 0,4.18958 -2.82541,5.1808 -17.17346,6.02479 l -13.2704,0.78062 -0.85224,7.0255 c -1.54612,12.74563 -5.91742,17.11693 -18.66305,18.66305 l -7.0255,0.85224 -0.78062,13.2704 c -0.84399,14.34805 -1.83521,17.17346 -6.02479,17.17346 -5.04862,0 -6.46499,-3.42037 -6.46499,-15.61223 0,-13.50235 -1.26369,-15.62295 -9.28928,-15.58833 -8.92641,0.0386 -9.80268,1.38012 -10.84287,16.60109 -0.89265,13.06196 -1.14849,13.84773 -4.67087,14.34576 -5.15827,0.72934 -6.36989,-1.97706 -6.39755,-14.29024 -0.0319,-14.2042 -1.50379,-16.68052 -9.91454,-16.68052 -3.66208,0 -7.50139,0.84306 -8.5318,1.87347 -1.12138,1.12138 -1.88307,6.60533 -1.89737,13.66071 -0.0273,13.45999 -1.15376,16.17802 -6.39755,15.43658 -3.52098,-0.49784 -3.76954,-1.25875 -4.50711,-13.7973 -0.42934,-7.29872 -1.34899,-14.14859 -2.04367,-15.22193 -1.61217,-2.49093 -13.9073,-2.54954 -16.37877,-0.0781 -1.12846,1.12847 -1.87347,6.59183 -1.87347,13.73877 0,12.19186 -1.41637,15.61223 -6.465,15.61223 -4.18957,0 -5.18078,-2.82541 -6.02479,-17.17346 l -0.78061,-13.2704 -5.29001,-0.50533 c -2.9095,-0.27793 -6.94917,-0.089 -8.97703,0.42005 -3.46777,0.87036 -3.68703,1.62604 -3.68703,12.70745 0,12.88951 -1.69058,17.82169 -6.108658,17.82169 -4.854489,0 -6.226402,-3.5307 -6.703246,-17.25127 l -0.458494,-13.19259 -7.633619,-0.48474 c -4.198491,-0.26661 -8.413794,0.29232 -9.367341,1.24208 -0.953547,0.94975 -2.084997,7.84212 -2.514333,15.31637 -0.762383,13.27219 -0.876214,13.60063 -4.874535,14.06431 -2.667641,0.30936 -4.435364,-0.41502 -5.073977,-2.07922 z M 182.25874,230.42424 c 18.4613,-1.61734 19.9197,-3.01688 19.9197,-19.11594 0,-11.68724 -0.23794,-12.50942 -5.23897,-18.1024 -7.49743,-8.38486 -8.81204,-11.58206 -8.81204,-21.43121 0,-8.17964 -0.40834,-9.14035 -6.24489,-14.69253 -5.32303,-5.06367 -6.2449,-6.89455 -6.2449,-12.40262 0,-4.93394 1.07726,-7.66766 4.55561,-11.56061 3.87086,-4.33225 5.61542,-5.0986 11.60666,-5.0986 12.68154,0 20.83873,11.70224 16.08607,23.07695 -1.25159,2.99549 -4.45291,6.7325 -7.11403,8.30447 -4.53404,2.67831 -4.8384,3.43313 -4.8384,11.99904 0,8.3711 0.51974,9.75734 6.17123,16.45967 6.12837,7.26787 6.17883,7.43612 7.26381,24.218 1.04619,16.18205 1.25961,16.96278 5.02855,18.39572 5.97141,2.27033 12.66257,0.17072 14.76054,-4.6317 1.2925,-2.95859 1.82547,-26.09419 1.85792,-80.6487 0.0515,-86.658434 0.19799,-85.466498 -10.61283,-86.358333 -9.86799,-0.814055 -10.41821,0.490889 -10.41821,24.708215 0,28.040678 0.0584,27.958018 -20.58859,29.189828 l -15.08484,0.89997 -7.89457,7.99387 c -7.20848,7.29915 -8.01191,8.85187 -9.24473,17.86642 -1.27787,9.34403 -1.86464,10.38703 -10.96081,19.4832 l -9.61065,9.61066 -36.44962,0.79287 c -27.668266,0.60186 -37.07061,1.3091 -39.027241,2.93557 -1.959387,1.62877 -2.571894,4.81165 -2.553721,13.27039 0.01311,6.12025 0.688824,12.18154 1.501502,13.46955 1.137301,1.8025 5.557221,2.46098 19.191691,2.85912 l 17.714092,0.5173 6.692307,-5.59128 c 6.51672,-5.44456 7.03824,-5.59125 19.87763,-5.59125 h 13.18533 l 6.12673,-6.6352 c 5.50661,-5.96361 6.85641,-6.6352 13.33583,-6.6352 6.16969,0 7.86591,0.73511 11.76469,5.09861 6.67103,7.46618 6.39329,16.01369 -0.75255,23.15953 -7.72586,7.72586 -14.78409,7.44039 -23.16121,-0.93673 l -6.2449,-6.2449 h -13.0324 c -12.47711,0 -13.27861,0.2162 -18.81071,5.07398 -5.73738,5.03804 -5.91195,5.07788 -24.643596,5.62417 -10.375907,0.30261 -19.743473,1.26682 -20.816814,2.1427 -1.15924,0.94596 -1.951529,5.31789 -1.951529,10.76866 v 9.17619 l 55.033129,-0.11101 c 30.26822,-0.061 61.17411,-0.64895 68.67973,-1.30649 z m -18.19417,-30.57625 c 5.3056,-8.09738 -2.19878,-17.1911 -11.49006,-13.92354 -10.06386,3.53928 -7.22085,17.81521 3.54784,17.81521 4.0248,0 6.03897,-0.98694 7.94222,-3.89167 z m -22.41577,-45.828 c 7.45287,-7.10954 7.97804,-8.12341 8.69345,-16.78315 0.88047,-10.65771 4.59763,-16.50275 16.45855,-25.88029 7.06028,-5.58203 8.24423,-5.97396 18.04598,-5.97396 15.74257,0 16.4597,-0.90071 16.98925,-21.338161 0.30258,-11.677658 -0.19488,-18.119805 -1.60732,-20.814878 -1.95022,-3.721175 -2.69817,-3.903059 -16.05044,-3.903059 h -14.00491 l -0.39597,5.464283 c -1.34723,18.590721 -1.08941,18.100032 -19.30509,36.741515 -17.05915,17.45791 -17.08857,17.50123 -16.09655,23.70498 1.81201,11.3317 -6.41692,20.73713 -18.14319,20.73713 -6.71198,0 -15.53365,-8.71992 -15.53365,-15.35448 0,-12.26414 8.33516,-19.78711 20.25266,-18.27925 l 6.98225,0.88344 16.82641,-16.774232 16.8264,-16.77423 v -8.691416 c 0,-4.780279 -0.84306,-9.534476 -1.87347,-10.564883 -2.15845,-2.158456 -28.68823,-2.647688 -29.98287,-0.552911 -0.44888,0.726307 -1.29647,7.079972 -1.88352,14.119259 -0.83208,9.977339 -1.68233,13.127815 -3.85702,14.291677 -1.53431,0.821137 -9.81117,1.492976 -18.39301,1.492976 -20.116326,0 -20.51006,0.356065 -20.51006,18.5478 0,8.47407 -0.739208,14.63398 -1.951529,16.26234 -1.31414,1.76511 -5.520913,3.00987 -12.880094,3.81115 l -10.928565,1.18991 -0.399365,12.48979 c -0.21965,6.86938 0.216446,13.43813 0.969106,14.59722 2.361923,3.63735 10.977315,4.59359 42.870287,4.75826 l 30.95023,0.15981 z m 57.7975,-3.06059 c 7.82059,-6.71672 -3.63556,-20.47482 -12.25607,-14.71874 -6.26438,4.18284 -5.46257,14.86112 1.30481,17.37661 3.99153,1.4837 6.971,0.76058 10.95126,-2.65787 z m -75.06166,-15.37493 c 5.92389,-5.36104 1.75449,-16.15087 -6.241,-16.15087 -8.25337,0 -12.91152,10.55506 -7.18526,16.28133 3.19752,3.19752 9.82,3.13317 13.42626,-0.13046 z M 75.375798,119.04329 c 0.880005,-1.07334 1.844219,-8.85876 2.142693,-17.30094 0.696315,-19.694787 0.795007,-19.778117 23.423889,-19.778117 19.02782,0 20.05244,-0.627248 20.05244,-12.275635 0,-10.891387 -1.48311,-11.417385 -30.60608,-10.854695 -21.962471,0.424341 -25.880498,0.878277 -28.27853,3.276307 -2.39803,2.398032 -2.851966,6.316059 -3.276307,28.27853 -0.42432,21.96143 -0.138402,25.849 2.063046,28.05045 3.013786,3.01378 12.189337,3.39662 14.478849,0.6041 z"
       id="path316"
       transform="scale(0.26458333)" />
  </g>
</svg>
