<?xml version="1.0" encoding="UTF-8"?>
<!DOCTYPE svg PUBLIC "-//W3C//DTD SVG 1.1//EN" "http://www.w3.org/Graphics/SVG/1.1/DTD/svg11.dtd">
<!-- Creator: CorelDRAW 2019 (64-Bit) -->
<svg xmlns="http://www.w3.org/2000/svg" xml:space="preserve" width="134.036mm" height="65.5282mm" version="1.1" style="shape-rendering:geometricPrecision; text-rendering:geometricPrecision; image-rendering:optimizeQuality; fill-rule:evenodd; clip-rule:evenodd"
viewBox="0 0 12978.58 6345.01"
 xmlns:xlink="http://www.w3.org/1999/xlink"
 xmlns:xodm="http://www.corel.com/coreldraw/odm/2003">
 <defs>
  <style type="text/css">
   <![CDATA[
    .str0 {stroke:#003399;stroke-width:7.38;stroke-miterlimit:22.9256}
    .fil2 {fill:black}
    .fil0 {fill:#003399}
    .fil1 {fill:#1B2C4F}
    .fil3 {fill:white;fill-opacity:0.239216}
   ]]>
  </style>
 </defs>
 <g id="Livello_x0020_1">
  <metadata id="CorelCorpID_0Corel-Layer"/>
  <path class="fil0 str0" d="M12114.94 1567.7c-4.24,0.42 -8.53,0.63 -12.87,0.63l-233.17 -0.13c-4,0 -7.95,-0.16 -11.82,-0.48l-468.56 0.25 -468.95 -0.27c-3.74,0.33 -7.51,0.5 -11.32,0.5l-233.23 0.13c-4.54,0 -9.02,-0.21 -13.41,-0.63l-108.9 0c-205.94,0 -435.46,155.74 -575.61,295.69 -128.7,128.55 -253.55,310.67 -277.01,495.09l-22.33 175.56c-0.19,3.11 -0.48,6.24 -0.88,9.37l-52.93 417.08 728.01 20.46 59.64 -469.99c8.08,-63.61 61.43,-110.65 125.53,-110.68l713.51 -0.4 713.27 0.4c37.67,0.03 70.08,14.7 94.99,42.96 24.87,28.29 35.31,62.3 30.54,99.67l-61.83 485.12 727.98 20.45 68.48 -537.02c0.36,-2.89 0.83,-5.72 1.38,-8.53l22.44 -176.4c3.07,-24.08 4.36,-48.38 4.04,-72.64 -1.74,-128.39 -48.91,-255.12 -118.6,-361.79 -107.55,-164.58 -302.88,-324.4 -508.79,-324.4l-109.59 0zm-216.07 1868.61l-7390.21 -207.57c-48.43,-1.36 -89.25,-27.74 -110.38,-71.33 -21.14,-43.61 -16.56,-91.99 12.37,-130.84l1934.4 -2597.91 -2479.95 2244.63c-28.33,25.64 -62.85,36.52 -100.76,31.75 -37.91,-4.75 -68.65,-23.84 -89.76,-55.69l-686.48 -1036.03 -765.08 2.37 958.57 1417.27c26.19,38.72 29.35,85.03 8.67,126.96 -20.69,41.92 -59.36,67.59 -106.03,70.37l-1756.21 104.53 1493.92 140.57c45.37,4.28 82.29,29.93 102.13,70.96 19.83,41.05 16.98,85.91 -7.86,124.13l-949.23 1459.79 201.13 0 1501.95 -1137.05c28.75,-21.77 61.53,-29.85 97.11,-23.97 35.57,5.89 64,24.11 84.19,53.98l748.76 1107.03 718.35 0 -928.07 -1400.66c-26.28,-39.64 -28.63,-87.05 -6.4,-129.1 22.24,-42.05 62.73,-66.81 110.3,-67.43l7404.57 -96.76zm-4920.68 1693.95l1556.37 0 104.65 -822.85 -1315.05 -0.58c-37.69,-0.01 -70.09,-14.67 -94.99,-42.95 -24.89,-28.27 -35.32,-62.3 -30.56,-99.68l32.53 -255.13 -731.82 9.58 -35.31 277c-0.38,2.93 -0.85,5.85 -1.42,8.72l-22.42 176.23c-39.99,314.3 229.17,685.42 538.02,749.67zm-6706.37 0l730.64 0 177.92 -1395.8 -721.95 -67.94 -186.62 1463.73zm275.56 -2161.44l736.21 -43.84 173.04 -1357.28 -730.64 0 -178.61 1401.12zm6084.79 -92.34l728.03 20.45 169.46 -1329.24 -730.64 0 -166.85 1308.79zm6022.75 961.72l-3147.6 41.13 -158.76 1250.92 730.65 0 96.48 -760.19c8.09,-63.66 61.52,-110.7 125.67,-110.68l1425.43 0.66c37.67,0.02 70.07,14.67 94.97,42.95 24.89,28.28 35.32,62.3 30.57,99.68l-92.77 727.58 730.62 0 164.74 -1292.05z"/>
  <path class="fil1" d="M12224.53 1441.07c396.72,0 804.49,464.75 748.94,901.43l-0.95 7.59 -106.77 828.16 -981.43 -27.59 79.5 -623.76 -713.26 -0.4 -713.38 0.4 -74.07 583.84 -982.38 -27.6 70.53 -555.67 -0.32 0 23.53 -184.97c55.54,-436.68 581.52,-901.43 978.22,-901.43l122.33 0 -0.09 0.65 233.23 -0.13 0.05 -0.52 104.46 0.05 375.91 0.22 376 -0.22 104.43 -0.05 -0.05 0.52 233.16 0.13 0.08 -0.65 122.32 0zm-109.59 126.62c-4.24,0.42 -8.53,0.63 -12.87,0.63l-233.17 -0.13c-4,0 -7.95,-0.16 -11.82,-0.48l-468.56 0.25 -468.95 -0.27c-3.74,0.33 -7.51,0.5 -11.32,0.5l-233.23 0.13c-4.54,0 -9.02,-0.21 -13.41,-0.63l-108.9 0c-205.94,0 -435.46,155.74 -575.61,295.69 -128.7,128.55 -253.55,310.67 -277.01,495.09l-22.33 175.56c-0.19,3.11 -0.48,6.24 -0.88,9.37l-52.93 417.08 728.01 20.46 59.64 -469.99c8.08,-63.61 61.43,-110.65 125.53,-110.68l713.51 -0.4 713.27 0.4c37.67,0.03 70.08,14.7 94.99,42.96 24.87,28.29 35.31,62.3 30.54,99.67l-61.83 485.12 727.98 20.45 68.48 -537.02c0.36,-2.89 0.83,-5.72 1.38,-8.53l22.44 -176.4c3.07,-24.08 4.36,-48.38 4.04,-72.64 -1.74,-128.39 -48.91,-255.12 -118.6,-361.79 -107.55,-164.58 -302.88,-324.4 -508.79,-324.4l-109.59 0zm-216.07 1868.61l-7390.21 -207.57c-48.43,-1.36 -89.25,-27.74 -110.38,-71.33 -21.14,-43.61 -16.56,-91.99 12.37,-130.84l1934.4 -2597.91 -2479.95 2244.63c-28.33,25.64 -62.85,36.52 -100.76,31.75 -37.91,-4.75 -68.65,-23.84 -89.76,-55.69l-686.48 -1036.03 -765.08 2.37 958.57 1417.27c26.19,38.72 29.35,85.03 8.67,126.96 -20.69,41.92 -59.36,67.59 -106.03,70.37l-1756.21 104.53 1493.92 140.57c45.37,4.28 82.29,29.93 102.13,70.96 19.83,41.05 16.98,85.91 -7.86,124.13l-949.23 1459.79 201.13 0 1501.95 -1137.05c28.75,-21.77 61.53,-29.85 97.11,-23.97 35.57,5.89 64,24.11 84.19,53.98l748.76 1107.03 718.35 0 -928.07 -1400.66c-26.28,-39.64 -28.63,-87.05 -6.4,-129.1 22.24,-42.05 62.73,-66.81 110.3,-67.43l7404.57 -96.76zm-4920.68 1693.95l1556.37 0 104.65 -822.85 -1315.05 -0.58c-37.69,-0.01 -70.09,-14.67 -94.99,-42.95 -24.89,-28.27 -35.32,-62.3 -30.56,-99.68l32.53 -255.13 -731.82 9.58 -35.31 277c-0.38,2.93 -0.85,5.85 -1.42,8.72l-22.42 176.23c-39.99,314.3 229.17,685.42 538.02,749.67zm-6706.37 0l730.64 0 177.92 -1395.8 -721.95 -67.94 -186.62 1463.73zm275.56 -2161.44l736.21 -43.84 173.04 -1357.28 -730.64 0 -178.61 1401.12zm6084.79 -92.34l728.03 20.45 169.46 -1329.24 -730.64 0 -166.85 1308.79zm6022.75 961.72l-3147.6 41.13 -158.76 1250.92 730.65 0 96.48 -760.19c8.09,-63.66 61.52,-110.7 125.67,-110.68l1425.43 0.66c37.67,0.02 70.07,14.67 94.97,42.95 24.89,28.28 35.32,62.3 30.57,99.68l-92.77 727.58 730.62 0 164.74 -1292.05zm190.46 -501.98l-8333.16 -234.06 2309.87 -3102.16 -192.14 0 -2849.81 2579.4 -724.16 -1092.93 -1070.94 3.32 1091.68 1614.09 -2694.65 160.38 -13.7 107.41 2441.71 229.77 -1076.45 1655.43 477.01 0 1535.87 -1162.73 786.41 1162.73 1021.35 0 -1058.31 -1597.21 8321.76 -108.75 27.67 -214.7zm-5879.46 1920.66c-362.88,-66.94 -702.34,-491.42 -651.36,-892.27l23.54 -184.99 0.3 0 49.24 -386.14 987.53 -12.93 -50.96 399.66 1382.51 0.59 76.21 0.04 -17.12 134.65 -97.36 765.61 -22.38 175.78 -1680.15 0zm-6837.88 0l22.19 -173.93 198.1 -1553.97 974.21 91.68 -192.71 1511.77 -15.89 124.45 -985.91 0zm274.41 -2152.59l33.28 -260.97 161.72 -1268.6 17.03 -133.64 122.32 0 695.53 0 168.08 0 -23.36 183.11 -181.15 1420.95 -993.45 59.15zm6086.44 -105.18l181.57 -1424.4 17.05 -133.64 122.31 0 695.54 0 168.07 0 -23.36 183.11 -178.79 1402.54 -982.39 -27.62zm6108.89 2257.76l-982.02 0 22.18 -173.94 88.76 -696.28 -1425.43 -0.65 -88.45 696.92 -22.04 173.94 -985.93 0 15.76 -124.46 174.93 -1378.25 3401.67 -44.45 -199.45 1547.17z"/>
  <path class="fil2" d="M104.2 5525.68l151.39 0 -104.19 799.29 -151.4 0 104.2 -799.29zm572.97 0l180.17 0c116.14,0 200.54,14.48 253.38,43.23 52.66,28.76 93.12,75.51 121.22,140.45 28.1,64.75 36.41,140.44 25.1,227.09 -8.02,61.6 -25.61,118.2 -52.74,169.77 -27.12,51.58 -61.1,94.44 -101.54,128.58 -40.42,33.96 -82.45,57.52 -126.1,70.68 -43.63,12.99 -117.19,19.48 -220.72,19.48l-182.95 0 104.19 -799.29zm132.24 146.95l-65.74 504.28 70.51 0c69.57,0 120.9,-7.97 154.34,-23.93 33.43,-15.96 62.55,-42.87 87.32,-80.52 24.75,-37.67 40.81,-84.05 48.03,-139.34 11.05,-84.79 -4.11,-150.66 -45.34,-197.42 -37.17,-42.11 -103.1,-63.07 -197.53,-63.07l-51.59 0zm1274.7 -146.95l80.15 0 -94.04 721.37 308.36 0 -10.15 77.92 -388.52 0 104.19 -799.29zm1087.96 0l268.74 799.29 -85.9 0 -90.62 -262.72 -346.4 0 -158.38 262.72 -89.04 0 481.57 -799.29 20.03 0zm-31.88 167.73l-175.41 290.92 274.4 0 -98.99 -290.92zm607.46 482.03l73.23 -40.82c36.35,88.32 85.89,132.47 148.6,132.47 26.9,0 52.96,-6.3 78.14,-18.75 25.18,-12.42 45.37,-29.31 60.36,-50.27 15.15,-20.96 24.2,-43.23 27.27,-66.79 3.48,-26.72 -2.2,-52.88 -17.03,-78.67 -20.42,-35.43 -60.47,-78.3 -120.59,-128.21 -60.2,-50.46 -97.02,-86.82 -110.41,-109.27 -23.49,-37.67 -32.26,-78.48 -26.55,-122.27 4.52,-34.7 17.01,-66.42 37.43,-95 20.41,-28.57 46.9,-51.02 79.48,-67.54 32.58,-16.52 66.49,-24.68 102.12,-24.68 37.85,0 72.07,9.29 102.47,28.01 30.43,18.57 60.84,52.88 91.05,102.79l-71.75 49.54c-25.05,-39.89 -47.42,-66.23 -67.09,-78.85 -19.68,-12.8 -42.04,-19.11 -67.08,-19.11 -32.47,0 -60.28,9.84 -83.42,29.31 -23.17,19.68 -36.67,43.61 -40.42,72.37 -2.26,17.25 -0.76,34.13 4.36,50.47 5.11,16.33 16.18,33.95 32.95,53.25 9.09,10.02 40.3,36.74 93.3,79.79 62.73,51.19 104.49,96.66 125.1,136.36 20.6,39.88 28.34,79.97 23.09,120.23 -7.54,57.87 -36.19,108.34 -85.73,151.01 -49.75,42.87 -106.14,64.21 -169.23,64.21 -48.61,0 -91.08,-12.99 -127.21,-38.97 -36.13,-25.96 -67.02,-69.57 -92.44,-130.6zm969.13 -649.76l457.54 0 -10.15 77.93 -377.38 0 -32.66 250.47 374.03 0 -10.15 77.94 -374.03 0 -41.08 315.04 374.04 0 -10.16 77.92 -454.18 0 104.19 -799.29zm846.75 0l159.57 0c88.87,0 148.69,3.72 179.28,10.95 46.29,10.76 81.86,33.95 106.87,69.76 25.23,35.62 34.35,79.59 27.56,131.73 -5.66,43.43 -20.85,81.64 -45.73,114.49 -24.71,33.02 -57.26,57.88 -97.68,74.76 -40.24,16.89 -94.05,25.42 -161.27,25.8l239.31 371.81 -98.16 0 -239.3 -371.81 -46.02 0 -48.46 371.81 -80.15 0 104.19 -799.29zm70.01 77.93l-35.41 271.62 137.88 1.11c53.62,0 93.81,-5.01 120.74,-15.21 26.94,-10.21 49.08,-26.36 66.45,-48.61 17.19,-22.26 27.66,-47.13 31.27,-74.77 3.49,-26.72 -0.55,-51.21 -12.36,-73.1 -11.62,-21.9 -28.7,-37.49 -51.21,-46.94 -22.34,-9.48 -61.05,-14.11 -115.97,-14.11l-141.39 0zm1050.55 571.83l73.22 -40.82c36.35,88.32 85.89,132.47 148.6,132.47 26.9,0 52.96,-6.3 78.15,-18.75 25.18,-12.42 45.36,-29.31 60.36,-50.27 15.15,-20.96 24.19,-43.23 27.26,-66.79 3.48,-26.72 -2.2,-52.88 -17.03,-78.67 -20.42,-35.43 -60.47,-78.3 -120.59,-128.21 -60.19,-50.46 -97.02,-86.82 -110.41,-109.27 -23.49,-37.67 -32.26,-78.48 -26.55,-122.27 4.52,-34.7 17.01,-66.42 37.43,-95 20.41,-28.57 46.9,-51.02 79.48,-67.54 32.59,-16.52 66.49,-24.68 102.13,-24.68 37.84,0 72.07,9.29 102.46,28.01 30.43,18.57 60.84,52.88 91.05,102.79l-71.75 49.54c-25.05,-39.89 -47.41,-66.23 -67.09,-78.85 -19.68,-12.8 -42.03,-19.11 -67.08,-19.11 -32.47,0 -60.28,9.84 -83.42,29.31 -23.17,19.68 -36.67,43.61 -40.42,72.37 -2.25,17.25 -0.75,34.13 4.36,50.47 5.11,16.33 16.18,33.95 32.95,53.25 9.09,10.02 40.3,36.74 93.3,79.79 62.73,51.19 104.49,96.66 125.1,136.36 20.6,39.88 28.34,79.97 23.09,120.23 -7.54,57.87 -36.19,108.34 -85.73,151.01 -49.74,42.87 -106.14,64.21 -169.23,64.21 -48.61,0 -91.08,-12.99 -127.21,-38.97 -36.13,-25.96 -67.01,-69.57 -92.43,-130.6zm905.68 -649.76l91.45 0 163.19 333.78 246.68 -333.78 90.9 0 -308.19 417.09 -49.81 382.2 -80.15 0 49.81 -382.2 -203.88 -417.09zm800.64 649.76l73.23 -40.82c36.35,88.32 85.89,132.47 148.6,132.47 26.9,0 52.96,-6.3 78.14,-18.75 25.18,-12.42 45.37,-29.31 60.36,-50.27 15.15,-20.96 24.2,-43.23 27.27,-66.79 3.48,-26.72 -2.2,-52.88 -17.03,-78.67 -20.42,-35.43 -60.47,-78.3 -120.59,-128.21 -60.2,-50.46 -97.02,-86.82 -110.42,-109.27 -23.48,-37.67 -32.25,-78.48 -26.54,-122.27 4.52,-34.7 17.01,-66.42 37.42,-95 20.42,-28.57 46.91,-51.02 79.49,-67.54 32.58,-16.52 66.49,-24.68 102.12,-24.68 37.85,0 72.07,9.29 102.47,28.01 30.43,18.57 60.84,52.88 91.05,102.79l-71.75 49.54c-25.05,-39.89 -47.42,-66.23 -67.09,-78.85 -19.68,-12.8 -42.04,-19.11 -67.08,-19.11 -32.47,0 -60.29,9.84 -83.42,29.31 -23.17,19.68 -36.67,43.61 -40.43,72.37 -2.25,17.25 -0.75,34.13 4.37,50.47 5.11,16.33 16.17,33.95 32.95,53.25 9.09,10.02 40.3,36.74 93.3,79.79 62.73,51.19 104.49,96.66 125.1,136.36 20.6,39.88 28.34,79.97 23.09,120.23 -7.54,57.87 -36.19,108.34 -85.73,151.01 -49.75,42.87 -106.14,64.21 -169.23,64.21 -48.61,0 -91.08,-12.99 -127.21,-38.97 -36.13,-25.96 -67.02,-69.57 -92.44,-130.6zm878.83 -571.83l10.15 -77.93 437.5 0 -10.15 77.93 -178.12 0 -94.04 721.36 -81.27 0 94.04 -721.36 -178.12 0zm810.89 -77.93l457.54 0 -10.15 77.93 -377.38 0 -32.66 250.47 374.03 0 -10.15 77.94 -374.04 0 -41.07 315.04 374.03 0 -10.15 77.92 -454.18 0 104.19 -799.29zm703.6 799.29l214.96 -799.29 16.52 0 239.77 655.69 408.68 -655.69 12.06 0 10.84 799.29 -77.37 0 -5.57 -572.19 -357.72 572.19 -20.96 0 -210.74 -576.65 -151.8 576.65 -78.67 0zm1241.23 -149.53l73.22 -40.82c36.35,88.32 85.9,132.47 148.61,132.47 26.9,0 52.96,-6.3 78.14,-18.75 25.18,-12.42 45.37,-29.31 60.36,-50.27 15.15,-20.96 24.19,-43.23 27.26,-66.79 3.49,-26.72 -2.2,-52.88 -17.02,-78.67 -20.43,-35.43 -60.48,-78.3 -120.59,-128.21 -60.2,-50.46 -97.03,-86.82 -110.42,-109.27 -23.49,-37.67 -32.26,-78.48 -26.55,-122.27 4.52,-34.7 17.01,-66.42 37.43,-95 20.42,-28.57 46.9,-51.02 79.49,-67.54 32.58,-16.52 66.48,-24.68 102.12,-24.68 37.85,0 72.07,9.29 102.47,28.01 30.42,18.57 60.83,52.88 91.05,102.79l-71.76 49.54c-25.05,-39.89 -47.41,-66.23 -67.09,-78.85 -19.68,-12.8 -42.03,-19.11 -67.08,-19.11 -32.47,0 -60.28,9.84 -83.42,29.31 -23.17,19.68 -36.67,43.61 -40.42,72.37 -2.25,17.25 -0.75,34.13 4.37,50.47 5.1,16.33 16.17,33.95 32.95,53.25 9.09,10.02 40.29,36.74 93.29,79.79 62.73,51.19 104.49,96.66 125.11,136.36 20.59,39.88 28.33,79.97 23.08,120.23 -7.54,57.87 -36.19,108.34 -85.73,151.01 -49.74,42.87 -106.14,64.21 -169.23,64.21 -48.61,0 -91.08,-12.99 -127.21,-38.97 -36.13,-25.96 -67.01,-69.57 -92.43,-130.6z"/>
  <path class="fil3" d="M12114.94 1567.7c-4.24,0.42 -8.53,0.63 -12.87,0.63l-233.17 -0.13c-4,0 -7.95,-0.16 -11.82,-0.48l-468.56 0.25 -468.95 -0.27c-3.74,0.33 -7.51,0.5 -11.32,0.5l-233.23 0.13c-4.54,0 -9.02,-0.21 -13.41,-0.63l-108.9 0c-110.02,0 -226.73,44.45 -332.99,107.19 -13.04,11.95 -25.56,23.89 -37.41,35.73 -128.7,128.55 -253.55,310.67 -277.01,495.09l-22.33 175.56c-0.19,3.11 -0.48,6.24 -0.88,9.37l-52.93 417.08 542.85 15.25 39.59 -312.01c8.08,-63.61 61.43,-110.65 125.53,-110.68l74.34 -0.04 5.34 -42.04c8.08,-63.61 61.43,-110.65 125.53,-110.68l713.52 -0.4 713.26 0.4c37.67,0.03 70.09,14.7 94.99,42.96 24.87,28.29 35.31,62.3 30.54,99.67l-61.83 485.12 542.91 15.26 48.34 -379.07c0.36,-2.89 0.83,-5.72 1.38,-8.53l22.44 -176.4c3.07,-24.08 4.36,-48.38 4.04,-72.64 -1.74,-128.39 -48.91,-255.12 -118.6,-361.79 -107.55,-164.58 -302.88,-324.4 -508.79,-324.4l-109.59 0zm-5769.89 -1139.05c-797.01,721.39 -1688.53,1528.33 -2479.95,2244.63 -28.33,25.64 -62.85,36.52 -100.76,31.75 -37.91,-4.75 -68.65,-23.84 -89.76,-55.69l-686.48 -1036.03 -457.2 1.41 855.88 1265.46c26.19,38.72 29.35,85.03 8.67,126.96 -20.69,41.92 -59.36,67.59 -106.03,70.37l-87.44 5.21c4.46,25.59 0.6,52.17 -11.74,77.19 -20.69,41.92 -59.36,67.59 -106.03,70.37l-636.03 37.85 578.94 54.48c45.37,4.28 82.29,29.93 102.13,70.96 19.83,41.05 16.98,85.92 -7.86,124.13l-949.22 1459.8 197.71 0 1300.16 -984.29c6.54,-4.95 13.27,-9.19 20.2,-12.7l185.01 -140.06c28.74,-21.77 61.52,-29.85 97.11,-23.97 35.57,5.89 63.99,24.11 84.18,53.98l748.76 1107.04 411.93 0 -826.85 -1247.9c-26.28,-39.64 -28.63,-87.05 -6.4,-129.1 22.24,-42.05 62.73,-66.81 110.3,-67.43l82.33 -1.07c-5.85,-27.97 -1.72,-57.22 12.57,-84.25 22.24,-42.06 62.73,-66.82 110.3,-67.43l3552.64 -46.44 -3743.48 -105.14c-48.43,-1.36 -89.25,-27.74 -110.38,-71.33 -21.14,-43.61 -16.56,-91.99 12.37,-130.84l1934.4 -2597.91zm838.33 4548.86l1370.59 0 85.23 -670.09 -1315.05 -0.58c-37.69,-0.01 -70.09,-14.67 -94.99,-42.95 -24.89,-28.27 -35.32,-62.3 -30.56,-99.68l32.53 -255.13 -545.78 7.15 -16.15 126.66c-0.38,2.93 -0.85,5.85 -1.42,8.72l-22.42 176.23c-39.99,314.3 229.18,685.42 538.02,749.68zm-6706.37 0l544.91 0 158.45 -1243.04 -538.42 -50.66 -164.95 1293.7zm275.56 -2161.45l549.07 -32.69 154.98 -1215.67 -544.91 0 -159.14 1248.35zm6084.79 -92.34l542.97 15.26 149.32 -1171.28 -544.91 0 -147.37 1156.02zm2856.07 1153.19l-139.69 1100.59 544.84 0 77.1 -607.44c8.09,-63.66 61.52,-110.7 125.67,-110.68l74.18 0.03 5.34 -42.11c8.09,-63.66 61.52,-110.71 125.67,-110.68l1425.43 0.66c37.67,0.02 70.07,14.67 94.97,42.95 24.89,28.28 35.32,62.3 30.57,99.68l-92.76 727.59 544.88 0 145.27 -1139.3 -2961.48 38.7z"/>
 </g>
</svg>
