<?xml version="1.0" encoding="UTF-8"?>
<!DOCTYPE svg PUBLIC "-//W3C//DTD SVG 1.1//EN" "http://www.w3.org/Graphics/SVG/1.1/DTD/svg11.dtd">
<!-- Creator: CorelDRAW 2019 (64-Bit) -->
<svg xmlns="http://www.w3.org/2000/svg" xml:space="preserve" width="134.036mm" height="65.5282mm" version="1.1" style="shape-rendering:geometricPrecision; text-rendering:geometricPrecision; image-rendering:optimizeQuality; fill-rule:evenodd; clip-rule:evenodd" viewBox="0 0 13080.27 6394.73"
    xmlns:xlink="http://www.w3.org/1999/xlink"
    xmlns:xodm="http://www.corel.com/coreldraw/odm/2003">
    <defs>
        <style type="text/css">
            <![CDATA[
    .fil0 {fill:#1B2C4F}
   ]]>
        </style>
    </defs>
    <g id="Livello_x0020_1">
        <metadata id="CorelCorpID_0Corel-Layer"/>
        <polygon class="fil0" points="12696.5,5298.07 11706.79,5298.07 11729.15,5122.77 11818.6,4421.03 10382.01,4420.38 10292.86,5122.77 10270.65,5298.07 9277,5298.07 9292.88,5172.63 9469.19,3783.58 12897.51,3738.78 "/>
        <polygon class="fil0" points="6539.74,3022.62 6722.73,1587.06 6739.92,1452.37 6863.19,1452.37 7564.18,1452.37 7733.56,1452.37 7710.02,1636.91 7529.82,3050.45 "/>
        <polygon class="fil0" points="405.6,3128.62 439.14,2865.6 602.13,1587.06 619.3,1452.37 742.58,1452.37 1443.56,1452.37 1612.96,1452.37 1589.41,1636.91 1406.84,3069 "/>
        <polygon class="fil0" points="129.04,5298.07 151.41,5122.78 351.06,3556.63 1332.91,3649.03 1138.69,5172.64 1122.68,5298.07 "/>
        <path class="fil0" d="M7020.5 5298.07c-365.73,-67.46 -707.84,-495.27 -656.46,-899.26l23.72 -186.44 0.3 0 49.62 -389.17 995.27 -13.03 -51.36 402.79 1393.34 0.6 76.81 0.04 -17.25 135.71 -98.12 771.6 -22.55 177.16 -1693.32 0z"/>
        <polygon class="fil0" points="12946.03,3362.37 4547.58,3126.47 6875.55,0 6681.9,0 3809.76,2599.61 3079.92,1498.12 2000.58,1501.47 3100.81,3128.21 385.05,3289.84 371.24,3398.09 2832.09,3629.67 1747.2,5298.07 2227.94,5298.07 3775.84,4126.23 4568.42,5298.07 5597.77,5298.07 4531.17,3688.35 12918.14,3578.75 "/>
        <path class="fil0" d="M12320.32 1452.37c399.83,0 810.8,468.39 754.81,908.49l-0.96 7.65 -107.61 834.65 -989.12 -27.8 80.12 -628.65 -718.85 -0.4 -718.97 0.4 -74.65 588.41 -990.07 -27.81 71.08 -560.03 -0.32 0 23.71 -186.42c55.98,-440.1 586.08,-908.49 985.89,-908.49l123.29 0 -0.09 0.65 235.06 -0.13 0.05 -0.53 105.28 0.05 378.85 0.22 378.94 -0.22 105.25 -0.05 -0.05 0.53 234.99 0.13 0.08 -0.65 123.28 0z"/>
        <path class="fil0" d="M105.01 5568.98l152.58 0 -105 805.56 -152.59 0 105.01 -805.56zm577.46 0l181.58 0c117.05,0 202.11,14.59 255.37,43.57 53.07,28.98 93.85,76.1 122.17,141.55 28.32,65.26 36.69,141.54 25.29,228.87 -8.08,62.09 -25.81,119.13 -53.16,171.1 -27.33,51.98 -61.58,95.18 -102.34,129.59 -40.73,34.22 -83.1,57.97 -127.09,71.24 -43.97,13.1 -118.11,19.63 -222.45,19.63l-184.38 0 105 -805.56zm133.28 148.1l-66.25 508.24 71.06 0c70.12,0 121.85,-8.03 155.54,-24.11 33.69,-16.08 63.04,-43.2 88,-81.15 24.94,-37.96 41.13,-84.71 48.4,-140.43 11.13,-85.46 -4.14,-151.84 -45.69,-198.97 -37.46,-42.44 -103.91,-63.57 -199.08,-63.57l-51.99 0zm1284.69 -148.1l80.78 0 -94.78 727.03 310.78 0 -10.23 78.53 -391.56 0 105 -805.56zm1096.48 0l270.84 805.56 -86.57 0 -91.33 -264.77 -349.11 0 -159.62 264.77 -89.74 0 485.34 -805.56 20.19 0zm-32.13 169.04l-176.79 293.2 276.55 0 -99.76 -293.2zm612.22 485.81l73.81 -41.14c36.63,89.01 86.56,133.51 149.77,133.51 27.11,0 53.37,-6.35 78.75,-18.89 25.37,-12.52 45.73,-29.54 60.84,-50.67 15.27,-21.13 24.39,-43.57 27.48,-67.32 3.5,-26.92 -2.22,-53.29 -17.17,-79.29 -20.58,-35.71 -60.94,-78.91 -121.54,-129.22 -60.67,-50.85 -97.78,-87.5 -111.28,-110.13 -23.67,-37.96 -32.52,-79.09 -26.76,-123.22 4.56,-34.98 17.15,-66.95 37.73,-95.74 20.57,-28.8 47.27,-51.42 80.1,-68.07 32.84,-16.65 67.01,-24.88 102.92,-24.88 38.15,0 72.63,9.36 103.28,28.23 30.67,18.72 61.31,53.29 91.76,103.6l-72.31 49.93c-25.25,-40.21 -47.79,-66.75 -67.62,-79.47 -19.83,-12.9 -42.37,-19.26 -67.61,-19.26 -32.72,0 -60.75,9.91 -84.07,29.54 -23.35,19.83 -36.96,43.95 -40.73,72.94 -2.27,17.39 -0.76,34.4 4.39,50.86 5.15,16.45 16.31,34.21 33.21,53.66 9.16,10.1 40.62,37.02 94.04,80.41 63.22,51.59 105.31,97.42 126.08,137.43 20.76,40.2 28.56,80.6 23.27,121.17 -7.6,58.33 -36.48,109.19 -86.4,152.2 -50.14,43.2 -106.98,64.71 -170.55,64.71 -48.99,0 -91.79,-13.1 -128.21,-39.28 -36.41,-26.16 -67.54,-70.12 -93.17,-131.63zm976.72 -654.85l461.12 0 -10.23 78.54 -380.34 0 -32.92 252.43 376.96 0 -10.23 78.55 -376.96 0 -41.41 317.51 376.97 0 -10.24 78.53 -457.74 0 105 -805.56zm853.38 0l160.82 0c89.57,0 149.86,3.75 180.68,11.04 46.66,10.84 82.5,34.21 107.71,70.3 25.43,35.9 34.61,80.22 27.77,132.76 -5.71,43.77 -21.01,82.28 -46.09,115.39 -24.9,33.28 -57.71,58.34 -98.45,75.35 -40.56,17.02 -94.79,25.62 -162.53,26l241.19 374.73 -98.92 0 -241.18 -374.73 -46.38 0 -48.84 374.73 -80.78 0 105 -805.56zm70.56 78.54l-35.69 273.75 138.96 1.12c54.04,0 94.54,-5.05 121.68,-15.33 27.15,-10.29 49.47,-26.56 66.97,-48.99 17.32,-22.44 27.88,-47.5 31.51,-75.36 3.51,-26.93 -0.56,-51.61 -12.45,-73.67 -11.71,-22.07 -28.92,-37.79 -51.61,-47.31 -22.51,-9.55 -61.53,-14.22 -116.88,-14.22l-142.5 0zm1058.79 576.31l73.8 -41.14c36.63,89.01 86.56,133.51 149.77,133.51 27.11,0 53.37,-6.35 78.76,-18.89 25.37,-12.52 45.72,-29.54 60.84,-50.67 15.27,-21.13 24.38,-43.57 27.47,-67.32 3.5,-26.92 -2.22,-53.29 -17.17,-79.29 -20.58,-35.71 -60.94,-78.91 -121.54,-129.22 -60.66,-50.85 -97.78,-87.5 -111.28,-110.13 -23.67,-37.96 -32.52,-79.09 -26.76,-123.22 4.56,-34.98 17.15,-66.95 37.73,-95.74 20.57,-28.8 47.27,-51.42 80.1,-68.07 32.85,-16.65 67.01,-24.88 102.93,-24.88 38.14,0 72.63,9.36 103.27,28.23 30.67,18.72 61.31,53.29 91.76,103.6l-72.31 49.93c-25.25,-40.21 -47.78,-66.75 -67.62,-79.47 -19.83,-12.9 -42.36,-19.26 -67.61,-19.26 -32.72,0 -60.75,9.91 -84.07,29.54 -23.35,19.83 -36.96,43.95 -40.73,72.94 -2.26,17.39 -0.75,34.4 4.39,50.86 5.15,16.45 16.31,34.21 33.21,53.66 9.16,10.1 40.62,37.02 94.04,80.41 63.22,51.59 105.31,97.42 126.08,137.43 20.76,40.2 28.56,80.6 23.27,121.17 -7.6,58.33 -36.48,109.19 -86.4,152.2 -50.13,43.2 -106.98,64.71 -170.55,64.71 -48.99,0 -91.79,-13.1 -128.21,-39.28 -36.41,-26.16 -67.53,-70.12 -93.16,-131.63zm912.77 -654.85l92.17 0 164.46 336.39 248.61 -336.39 91.62 0 -310.6 420.36 -50.2 385.2 -80.78 0 50.2 -385.2 -205.48 -420.36zm806.91 654.85l73.81 -41.14c36.63,89.01 86.56,133.51 149.77,133.51 27.11,0 53.37,-6.35 78.75,-18.89 25.37,-12.52 45.73,-29.54 60.84,-50.67 15.27,-21.13 24.39,-43.57 27.48,-67.32 3.5,-26.92 -2.22,-53.29 -17.17,-79.29 -20.58,-35.71 -60.94,-78.91 -121.54,-129.22 -60.67,-50.85 -97.78,-87.5 -111.29,-110.13 -23.66,-37.96 -32.51,-79.09 -26.75,-123.22 4.56,-34.98 17.15,-66.95 37.72,-95.74 20.58,-28.8 47.28,-51.42 80.11,-68.07 32.84,-16.65 67.01,-24.88 102.92,-24.88 38.15,0 72.63,9.36 103.28,28.23 30.67,18.72 61.31,53.29 91.76,103.6l-72.31 49.93c-25.25,-40.21 -47.79,-66.75 -67.62,-79.47 -19.83,-12.9 -42.37,-19.26 -67.61,-19.26 -32.72,0 -60.76,9.91 -84.07,29.54 -23.35,19.83 -36.96,43.95 -40.74,72.94 -2.26,17.39 -0.75,34.4 4.4,50.86 5.15,16.45 16.3,34.21 33.21,53.66 9.16,10.1 40.62,37.02 94.04,80.41 63.22,51.59 105.31,97.42 126.08,137.43 20.76,40.2 28.56,80.6 23.27,121.17 -7.6,58.33 -36.48,109.19 -86.4,152.2 -50.14,43.2 -106.98,64.71 -170.55,64.71 -48.99,0 -91.79,-13.1 -128.21,-39.28 -36.41,-26.16 -67.54,-70.12 -93.17,-131.63zm885.71 -576.31l10.23 -78.54 440.93 0 -10.23 78.54 -179.51 0 -94.78 727.02 -81.91 0 94.78 -727.02 -179.51 0zm817.25 -78.54l461.12 0 -10.23 78.54 -380.34 0 -32.92 252.43 376.96 0 -10.23 78.55 -376.97 0 -41.4 317.51 376.96 0 -10.23 78.53 -457.74 0 105 -805.56zm709.11 805.56l216.64 -805.56 16.65 0 241.65 660.83 411.89 -660.83 12.16 0 10.92 805.56 -77.97 0 -5.61 -576.67 -360.53 576.67 -21.13 0 -212.39 -581.17 -152.99 581.17 -79.29 0zm1250.95 -150.7l73.8 -41.14c36.63,89.01 86.57,133.51 149.78,133.51 27.11,0 53.37,-6.35 78.75,-18.89 25.37,-12.52 45.73,-29.54 60.84,-50.67 15.27,-21.13 24.38,-43.57 27.47,-67.32 3.51,-26.92 -2.22,-53.29 -17.16,-79.29 -20.59,-35.71 -60.95,-78.91 -121.54,-129.22 -60.67,-50.85 -97.79,-87.5 -111.29,-110.13 -23.67,-37.96 -32.52,-79.09 -26.76,-123.22 4.56,-34.98 17.15,-66.95 37.73,-95.74 20.58,-28.8 47.27,-51.42 80.11,-68.07 32.84,-16.65 67,-24.88 102.92,-24.88 38.15,0 72.63,9.36 103.28,28.23 30.66,18.72 61.3,53.29 91.76,103.6l-72.32 49.93c-25.25,-40.21 -47.78,-66.75 -67.62,-79.47 -19.83,-12.9 -42.36,-19.26 -67.61,-19.26 -32.72,0 -60.75,9.91 -84.07,29.54 -23.35,19.83 -36.96,43.95 -40.73,72.94 -2.26,17.39 -0.75,34.4 4.4,50.86 5.14,16.45 16.3,34.21 33.21,53.66 9.16,10.1 40.61,37.02 94.03,80.41 63.22,51.59 105.31,97.42 126.09,137.43 20.75,40.2 28.55,80.6 23.26,121.17 -7.6,58.33 -36.48,109.19 -86.4,152.2 -50.13,43.2 -106.98,64.71 -170.55,64.71 -48.99,0 -91.79,-13.1 -128.21,-39.28 -36.41,-26.16 -67.53,-70.12 -93.16,-131.63z"/>
    </g>
</svg>
